<?xml version="1.0" encoding="UTF-8"?>
<svg version="1.1" xmlns="http://www.w3.org/2000/svg" width="2048" height="522">
<path d="M0 0 C9.21052632 3.42105263 9.21052632 3.42105263 11 7 C12.65690999 8.01608418 14.32543317 9.0132864 16 10 C41.21959412 28.8557713 57.81188763 53.09400859 64 84 C64 84.66 64 85.32 64 86 C65.2375 85.690625 66.475 85.38125 67.75 85.0625 C92.3824307 80.24687712 123.0669315 82.08314916 145 95 C145.90492188 95.52078125 146.80984375 96.0415625 147.7421875 96.578125 C152.26436977 99.23507482 156.67182177 102.0386149 161 105 C160.63657051 108.63429488 159.85555983 111.52648636 158.18359375 114.73828125 C156.80811411 117.41723556 155.46277345 120.10159978 154.17578125 122.82421875 C148.83282064 133.97356731 142.97962127 144.32850299 134 153 C133.154375 153.9075 132.30875 154.815 131.4375 155.75 C129.01672671 157.98455996 128.06296329 158.34365072 125 159 C124.67 159.99 124.34 160.98 124 162 C121.33916031 163.99396257 118.38757675 166 115 166 C115 166.66 115 167.32 115 168 C93.15862875 177.93310069 72.96589821 180.8666091 49 181 C48.67386719 181.88042969 48.34773437 182.76085937 48.01171875 183.66796875 C47.57472656 184.82941406 47.13773438 185.99085938 46.6875 187.1875 C46.25824219 188.33605469 45.82898438 189.48460937 45.38671875 190.66796875 C44.13864324 193.66686567 42.714208 196.25244177 41 199 C40.25601535 200.69306776 39.51387371 202.38719605 38.80371094 204.09472656 C34.78135056 213.63011549 30.28213763 223.09925509 25 232 C24.54109375 232.78246094 24.0821875 233.56492187 23.609375 234.37109375 C18.52772261 242.94303896 13.33778144 251.39881102 7.265625 259.30859375 C5.66671247 261.44541204 4.34783523 263.69744815 3 266 C1.99175081 267.61210575 0.96973444 269.21564576 -0.0625 270.8125 C-0.56910156 271.60269531 -1.07570313 272.39289063 -1.59765625 273.20703125 C-2.29181641 274.09455078 -2.29181641 274.09455078 -3 275 C-3.66 275 -4.32 275 -5 275 C-5.1546875 275.9590625 -5.1546875 275.9590625 -5.3125 276.9375 C-5.539375 277.618125 -5.76625 278.29875 -6 279 C-6.99 279.33 -7.98 279.66 -9 280 C-9.68000191 281.66127049 -10.34444528 283.32893141 -11 285 C-12.91796875 287.39453125 -12.91796875 287.39453125 -15.1875 289.8125 C-15.991875 290.68132812 -16.79625 291.55015625 -17.625 292.4453125 C-18.40875 293.28835938 -19.1925 294.13140625 -20 295 C-21.23564555 296.39010124 -22.46545791 297.78542492 -23.6875 299.1875 C-24.24179687 299.82042969 -24.79609375 300.45335937 -25.3671875 301.10546875 C-26.49042802 302.40875022 -27.59908415 303.72469857 -28.6953125 305.05078125 C-29.22898437 305.69402344 -29.76265625 306.33726562 -30.3125 307 C-30.78300781 307.5775 -31.25351562 308.155 -31.73828125 308.75 C-33 310 -33 310 -35 310 C-35.268125 310.639375 -35.53625 311.27875 -35.8125 311.9375 C-37 314 -37 314 -40 315 C-40.68554948 316.32372359 -41.35000161 317.65846196 -42 319 C-43.6640625 320.67578125 -43.6640625 320.67578125 -45.625 322.3125 C-46.33140625 322.90804688 -47.0378125 323.50359375 -47.765625 324.1171875 C-48.50296875 324.73851562 -49.2403125 325.35984375 -50 326 C-52.11556164 327.90104665 -54.22853926 329.80475172 -56.3359375 331.71484375 C-58 333 -58 333 -60 333 C-60 333.66 -60 334.32 -60 335 C-60.61875 335.268125 -61.2375 335.53625 -61.875 335.8125 C-64.2995233 336.95556848 -64.2995233 336.95556848 -66 340 C-66.99 340.33 -67.98 340.66 -69 341 C-69.60714844 341.60714844 -70.21429688 342.21429688 -70.83984375 342.83984375 C-73.22936457 345.22936457 -75.67895635 346.80883468 -78.5625 348.5625 C-82.35085827 350.83247 -82.35085827 350.83247 -85.65234375 353.71484375 C-87 355 -87 355 -90 355 C-90 355.66 -90 356.32 -90 357 C-91.8359375 358.296875 -91.8359375 358.296875 -94.375 359.75 C-98.86937009 362.34462217 -103.28453577 365.03538534 -107.67578125 367.80078125 C-110.13126392 369.06772777 -112.27905917 369.59065492 -115 370 C-115 370.66 -115 371.32 -115 372 C-115.87140625 372.43570312 -116.7428125 372.87140625 -117.640625 373.3203125 C-118.49599854 373.74812012 -118.49599854 373.74812012 -119.36865234 374.18457031 C-120.6343432 374.81725149 -121.90029859 375.44940373 -123.16650391 376.08105469 C-126.22415429 377.60720109 -129.27668422 379.14127171 -132.3203125 380.6953125 C-137.11779578 383.13699836 -141.83942415 385.44889588 -146.91796875 387.23828125 C-149.42338295 388.1548962 -151.85930358 389.20153846 -154.3125 390.25 C-170.56527986 397.04587269 -187.3795998 403.43069344 -204.7734375 406.54296875 C-207.10709282 407.02198221 -209.29820425 407.69914269 -211.5625 408.4375 C-217.48885985 410.29124289 -223.54348448 411.23907337 -229.65625 412.25390625 C-232.68494308 412.75792128 -235.68734498 413.3403427 -238.69311523 413.96606445 C-265.66467089 419.37994326 -293.576961 420.49773575 -321 420.5 C-322.18272491 420.50412903 -323.36544983 420.50825806 -324.58401489 420.51251221 C-339.42030108 420.53600225 -353.82537625 419.64320293 -368.4921875 417.38375854 C-371.83548211 416.87215017 -375.18482213 416.40783097 -378.53497314 415.94360352 C-385.88571982 414.88629185 -393.06403073 413.37125882 -400.25 411.5 C-401.0244043 411.29842285 -401.79880859 411.0968457 -402.59667969 410.88916016 C-407.27579587 409.61443376 -411.56419288 407.95303932 -416 406 C-417.51139926 405.53094506 -419.03202324 405.08996884 -420.5625 404.6875 C-433.54551192 400.91313885 -445.69758501 394.48246497 -457.4375 387.875 C-458.34338867 387.36960693 -458.34338867 387.36960693 -459.26757812 386.85400391 C-462.24712947 385.15296626 -464.62324001 383.4495855 -467 381 C-468.66158982 379.99158687 -470.32913586 378.99297069 -472 378 C-474.29426685 376.39038038 -476.52324344 374.70134209 -478.75 373 C-479.33910156 372.56171875 -479.92820312 372.1234375 -480.53515625 371.671875 C-484.88187307 368.35438078 -484.88187307 368.35438078 -486 365 C-487.0828125 364.62875 -487.0828125 364.62875 -488.1875 364.25 C-491.66685708 362.70361908 -493.18280467 360.69709828 -495.54296875 357.78125 C-497.0738972 355.84931041 -497.0738972 355.84931041 -499.3125 353.6875 C-504.49257189 348.50742811 -509.88915203 343.08772072 -514 337 C-514 336.34 -514 335.68 -514 335 C-514.66 335 -515.32 335 -516 335 C-517.0469021 333.36238778 -518.03820661 331.68900303 -519 330 C-520.80202603 327.48188502 -522.63365197 324.98831802 -524.4765625 322.5 C-526.04226643 319.9306397 -526.6087152 317.96107414 -527 315 C-527.66 315 -528.32 315 -529 315 C-534.859375 303.28125 -534.859375 303.28125 -535.92724609 301.14282227 C-536.646067 299.70697997 -537.36777841 298.27258132 -538.09228516 296.83959961 C-542.04841902 288.9977485 -545.08891946 280.88178278 -548.0625 272.625 C-548.30790527 271.95412354 -548.55331055 271.28324707 -548.80615234 270.59204102 C-552.38508068 260.51327063 -554.49150541 250.03506884 -556.5625 239.5625 C-556.77068359 238.53318359 -556.97886719 237.50386719 -557.19335938 236.44335938 C-559.55949454 224.56817942 -561.30984017 213.11274846 -561.265625 200.98046875 C-561.26753845 199.79705399 -561.2694519 198.61363922 -561.27142334 197.3943634 C-561.27277337 194.91630844 -561.26916044 192.43824611 -561.26074219 189.96020508 C-561.24997776 186.17968894 -561.26070276 182.39964273 -561.2734375 178.61914062 C-561.27211663 176.19791563 -561.26955574 173.77669092 -561.265625 171.35546875 C-561.26967346 170.23448288 -561.27372192 169.11349701 -561.27789307 167.95854187 C-561.27158875 166.89996475 -561.26528442 165.84138763 -561.25878906 164.75073242 C-561.25719788 163.83063889 -561.25560669 162.91054535 -561.25396729 161.96257019 C-560.92758941 158.15531854 -559.95477237 154.70104981 -559 151 C-557.94326167 150.99902319 -556.88652334 150.99804638 -555.79776263 150.99703997 C-509.19298441 150.95376463 -462.58821181 150.9067761 -415.98345947 150.84101868 C-414.92395421 150.83952533 -414.92395421 150.83952533 -413.8430448 150.83800181 C-398.48990375 150.81633981 -383.13676373 150.79401686 -367.78362463 150.77101372 C-360.25369916 150.75973588 -352.72377346 150.74860399 -345.19384766 150.73754883 C-344.06991162 150.73589498 -344.06991162 150.73589498 -342.9232698 150.73420772 C-318.66666037 150.69858296 -294.41005232 150.67258276 -270.15342617 150.65161031 C-245.2122782 150.62999493 -220.27116101 150.59859647 -195.33004131 150.55500887 C-191.8017258 150.54884725 -188.27341011 150.54279666 -184.7450943 150.53681374 C-183.70352995 150.53504241 -183.70352995 150.53504241 -182.6409239 150.53323531 C-171.49431448 150.51456386 -160.34771994 150.50610803 -149.2010968 150.50153876 C-137.97624453 150.496717 -126.7514484 150.48073658 -115.52662256 150.45433434 C-109.4523702 150.44036777 -103.37821114 150.43113039 -97.30394173 150.43499184 C-91.73057521 150.43842723 -86.15740724 150.42789365 -80.58408132 150.40676448 C-78.57970789 150.40153957 -76.57531359 150.40121581 -74.57094058 150.40660437 C-43.41399327 150.66122631 -43.41399327 150.66122631 -16 138 C-16.30292969 137.50113281 -16.60585938 137.00226563 -16.91796875 136.48828125 C-32.83108213 109.21565309 -31.65629023 76.482959 -24.41650391 46.59082031 C-21.14630999 34.58644934 -15.13235618 23.74519047 -9 13 C-8.34 13 -7.68 13 -7 13 C-6.773125 12.34 -6.54625 11.68 -6.3125 11 C-4.59428642 7.07265467 -2.33225393 3.58739822 0 0 Z " fill="#2295ED" transform="translate(561,102)"/>
<path d="M0 0 C9.41344368 6.42869324 9.41344368 6.42869324 11.13184738 11.39567852 C11.74221934 14.73250211 11.70698039 18.03923458 11.70294189 21.41914368 C11.70591302 22.19601994 11.70888414 22.97289621 11.7119453 23.77331418 C11.72062374 26.37924183 11.72213987 28.98512349 11.72363281 31.59106445 C11.72826187 33.45891925 11.73328665 35.3267731 11.73867798 37.19462585 C11.75180208 42.27374621 11.75824784 47.35285334 11.76268864 52.431988 C11.76562147 55.60945262 11.76972684 58.78691364 11.77419281 61.96437645 C11.78787244 71.91749407 11.79753484 81.87060345 11.8013947 91.82372981 C11.80586619 103.28990449 11.82336983 114.75595941 11.8523953 126.22209769 C11.87407606 135.09707642 11.88410251 143.97202163 11.88543582 152.84702653 C11.88647997 158.1409622 11.89230344 163.43478537 11.91025543 168.72869301 C11.9268452 173.71834832 11.92883916 178.70780794 11.92011642 183.69748116 C11.91935165 185.51821673 11.92361393 187.33896329 11.93357468 189.15967178 C12.06659601 215.01394243 5.56500477 240.51561416 -11.4375 260.75 C-12.0975 260.75 -12.7575 260.75 -13.4375 260.75 C-13.705625 261.389375 -13.97375 262.02875 -14.25 262.6875 C-15.4375 264.75 -15.4375 264.75 -18.4375 265.75 C-18.7675 266.41 -19.0975 267.07 -19.4375 267.75 C-19.7675 268.41 -20.0975 269.07 -20.4375 269.75 C-21.4275 270.08 -22.4175 270.41 -23.4375 270.75 C-23.7365625 271.36101562 -24.035625 271.97203125 -24.34375 272.6015625 C-25.74932142 275.36250635 -27.37823772 276.39992764 -29.9375 278.125 C-31.27361328 279.02605469 -31.27361328 279.02605469 -32.63671875 279.9453125 C-36.8421476 282.65508674 -41.11960314 285.22457461 -45.4375 287.75 C-46.22382812 288.25015625 -47.01015625 288.7503125 -47.8203125 289.265625 C-69.26678273 301.42929468 -99.07125972 301.13013391 -122.4375 295.75 C-132.01658491 293.06826912 -140.91195473 288.84819039 -149.4375 283.75 C-150.36175781 283.23824219 -151.28601563 282.72648437 -152.23828125 282.19921875 C-152.96402344 281.72097656 -153.68976562 281.24273437 -154.4375 280.75 C-154.4375 280.09 -154.4375 279.43 -154.4375 278.75 C-155.24960937 278.39421875 -155.24960937 278.39421875 -156.078125 278.03125 C-159.07000137 276.40652243 -161.54909399 274.3998123 -164.1875 272.25 C-165.17234375 271.4559375 -166.1571875 270.661875 -167.171875 269.84375 C-167.91953125 269.1528125 -168.6671875 268.461875 -169.4375 267.75 C-169.4375 267.09 -169.4375 266.43 -169.4375 265.75 C-170.0975 265.75 -170.7575 265.75 -171.4375 265.75 C-173.11274168 263.8276903 -174.65888802 261.90948155 -176.1875 259.875 C-176.63561035 259.28436768 -177.0837207 258.69373535 -177.54541016 258.08520508 C-181.21884313 253.17691002 -184.4827191 248.12488716 -187.4375 242.75 C-187.79199219 242.14542969 -188.14648438 241.54085937 -188.51171875 240.91796875 C-201.92898029 216.57598042 -201.62997567 186.63916886 -194.5703125 160.55078125 C-192.00173922 151.93277503 -188.65128997 141.75468075 -181.9765625 135.34765625 C-180.3145239 133.74723178 -180.3145239 133.74723178 -179.08203125 131.4375 C-177.10276268 128.20297084 -174.69559139 125.51347342 -172.125 122.75 C-171.43374023 121.98816406 -171.43374023 121.98816406 -170.72851562 121.2109375 C-167.51835004 117.72842129 -164.10505757 114.74475045 -160.4375 111.75 C-159.90640625 111.21246094 -159.3753125 110.67492187 -158.828125 110.12109375 C-154.02537801 105.38580107 -147.37742831 101.85440698 -141.4375 98.75 C-140.70789063 98.36070312 -139.97828125 97.97140625 -139.2265625 97.5703125 C-116.38354799 86.25423454 -85.59540052 84.1450886 -61.23486328 92.04541016 C-53.31603245 94.91373901 -45.76619245 98.61880197 -38.4375 102.75 C-37.468125 103.28238281 -36.49875 103.81476563 -35.5 104.36328125 C-34.819375 104.82089844 -34.13875 105.27851563 -33.4375 105.75 C-33.4375 106.41 -33.4375 107.07 -33.4375 107.75 C-32.4475 108.08 -31.4575 108.41 -30.4375 108.75 C-30.43385437 107.57759766 -30.43020874 106.40519531 -30.42645264 105.19726562 C-30.38946561 94.13305143 -30.33165211 83.0691146 -30.25359726 72.00511169 C-30.21413635 66.31736113 -30.18194091 60.62976506 -30.16650391 54.94189453 C-30.15132844 49.44982784 -30.11686643 43.95818594 -30.06919098 38.46630859 C-30.05438648 36.37406106 -30.04645952 34.28175287 -30.04561615 32.18945312 C-30.043242 29.25214678 -30.01612556 26.31601012 -29.98339844 23.37890625 C-29.99094398 22.08956932 -29.99094398 22.08956932 -29.99864197 20.77418518 C-29.88336435 14.05992091 -28.10532695 8.77353721 -23.62109375 3.69140625 C-23.04488281 3.23636719 -22.46867188 2.78132812 -21.875 2.3125 C-21.29621094 1.83941406 -20.71742188 1.36632812 -20.12109375 0.87890625 C-14.57360583 -2.84087104 -6.00683037 -2.18430195 0 0 Z M-138.22265625 146.453125 C-139.66538286 147.69710373 -139.66538286 147.69710373 -139.4375 149.75 C-140.3346875 150.11544922 -140.3346875 150.11544922 -141.25 150.48828125 C-143.84695967 151.98617049 -144.84083603 153.41667998 -146.4375 155.9375 C-146.911875 156.67355469 -147.38625 157.40960938 -147.875 158.16796875 C-148.390625 159.02003906 -148.90625 159.87210938 -149.4375 160.75 C-150.10265625 161.82894531 -150.7678125 162.90789062 -151.453125 164.01953125 C-158.75350054 176.93250503 -160.46667721 192.90942464 -157.125 207.1875 C-156.58973839 209.04971247 -156.02972028 210.905111 -155.4375 212.75 C-155.20933594 213.47703125 -154.98117187 214.2040625 -154.74609375 214.953125 C-154.06290951 216.93631124 -153.29147634 218.83442921 -152.4375 220.75 C-152.13585937 221.43191406 -151.83421875 222.11382812 -151.5234375 222.81640625 C-147.00816498 231.89567725 -139.39986882 239.60837763 -131.4375 245.75 C-130.73625 246.389375 -130.035 247.02875 -129.3125 247.6875 C-115.97481586 257.25583862 -98.35263771 259.89823405 -82.33105469 257.42480469 C-74.13981423 255.80234694 -66.66315876 252.8983782 -59.4375 248.75 C-59.4375 248.09 -59.4375 247.43 -59.4375 246.75 C-58.756875 246.54375 -58.07625 246.3375 -57.375 246.125 C-46.92371099 241.23290727 -39.10312377 230.00497841 -34.4375 219.75 C-33.73753906 218.22052734 -33.73753906 218.22052734 -33.0234375 216.66015625 C-26.88734496 201.14852565 -27.19697848 183.64417888 -33.71484375 168.3046875 C-35.91458894 163.76553075 -38.40449474 159.76346316 -41.4375 155.75 C-41.89125 154.88375 -42.345 154.0175 -42.8125 153.125 C-45.37463811 149.38033661 -48.79178111 146.43591179 -52.4375 143.75 C-53.0975 143.75 -53.7575 143.75 -54.4375 143.75 C-54.9325 142.265 -54.9325 142.265 -55.4375 140.75 C-57.92334675 139.28216668 -60.34170525 137.99111346 -62.9375 136.75 C-63.67363525 136.39478271 -64.40977051 136.03956543 -65.16821289 135.67358398 C-67.25060192 134.68217823 -69.34134204 133.71188032 -71.4375 132.75 C-72.65759766 132.17958984 -72.65759766 132.17958984 -73.90234375 131.59765625 C-96.2510144 122.70244278 -120.93634831 131.87147749 -138.22265625 146.453125 Z " fill="#2295ED" transform="translate(995.4375,136.25)"/>
<path d="M0 0 C0.69383789 0.28939453 1.38767578 0.57878906 2.10253906 0.87695312 C16.46634127 7.09796539 30.59781009 16.07973228 40.54296875 28.2890625 C42.02747635 30.08539287 42.02747635 30.08539287 43.95703125 31.91015625 C49.3222638 37.39849165 53.38241795 44.26381274 57 51 C57.639375 52.134375 58.27875 53.26875 58.9375 54.4375 C66.28920679 69.5477274 71.56768323 91.39396722 66.8125 107.875 C64.7448366 113.23560881 61.91714417 116.05520876 56.74157715 118.60578918 C50.47531051 120.84864533 43.89274214 120.44049793 37.32226562 120.43237305 C35.84326362 120.4414008 34.36426907 120.4517305 32.88528442 120.46325684 C28.88999779 120.49073413 24.89485348 120.50009867 20.89948463 120.50611091 C16.71674634 120.51551882 12.53411335 120.54172411 8.35144043 120.56611633 C0.43980073 120.60971868 -7.47181845 120.63830406 -15.38354158 120.66143972 C-24.39449918 120.68852504 -33.40535051 120.73243446 -42.41623211 120.77772844 C-60.94409857 120.87048494 -79.47199314 120.94220678 -98 121 C-96.73755253 123.4001576 -95.47142185 125.79824815 -94.203125 128.1953125 C-93.84879395 128.86989502 -93.49446289 129.54447754 -93.12939453 130.23950195 C-85.07042701 145.44038208 -72.31048903 155.44232282 -55.98828125 161.03125 C-39.62003008 165.46731305 -22.21982708 163.99661304 -7.125 156.1875 C-2.77276073 153.64869376 1.11470896 150.70349209 4.9296875 147.41796875 C10.03369019 143.92220841 17.06104161 144.54710101 23 145 C28.97848468 146.66613507 32.69175497 149.83780557 36 155 C37.97503382 160.71222358 37.52196459 167.4850797 36.3125 173.3125 C34.60726576 176.80417011 32.68893938 179.17989285 30 182 C29.01 182.33 28.02 182.66 27 183 C26.1646875 183.86625 26.1646875 183.86625 25.3125 184.75 C22.20055489 187.77783848 18.73120425 189.81023297 15 192 C14.27296875 192.43699219 13.5459375 192.87398437 12.796875 193.32421875 C7.68744818 196.29876269 2.68575636 198.4003097 -3 200 C-3.90492188 200.25652344 -4.80984375 200.51304687 -5.7421875 200.77734375 C-33.12750814 208.07767458 -61.85109665 206.66896032 -87.12890625 193.3515625 C-89.47826272 191.97205959 -91.74569698 190.52841745 -94 189 C-95.485 188.071875 -95.485 188.071875 -97 187.125 C-104.55811941 181.77133208 -111.18175389 176.21991449 -117 169 C-118.00546875 167.78957031 -118.00546875 167.78957031 -119.03125 166.5546875 C-123.10308525 161.58644076 -126.84946058 156.60215372 -130 151 C-130.40863281 150.27683594 -130.81726562 149.55367187 -131.23828125 148.80859375 C-143.61591631 125.54783684 -146.11906173 95.37258581 -139 70 C-136.31161844 61.23450368 -132.92280777 52.7634612 -128 45 C-127.48050781 44.16210938 -126.96101563 43.32421875 -126.42578125 42.4609375 C-123.42638115 37.7693819 -123.42638115 37.7693819 -122 36 C-121.34 36 -120.68 36 -120 36 C-119.938125 35.443125 -119.87625 34.88625 -119.8125 34.3125 C-117.94729178 29.00383044 -112.25138997 25.4245753 -108.0625 21.84375 C-106.51642813 20.46165545 -105.03345675 19.00843298 -103.5859375 17.5234375 C-95.32786839 9.46495918 -84.6495869 4.18983264 -74 0 C-73.35901367 -0.25974609 -72.71802734 -0.51949219 -72.05761719 -0.78710938 C-51.27239985 -8.79646999 -20.54611511 -8.59035801 0 0 Z M-84 54 C-85.77959132 56.01776219 -87.44074153 57.99190231 -89.0625 60.125 C-89.70711182 60.96671753 -89.70711182 60.96671753 -90.36474609 61.82543945 C-94.12180549 66.88258102 -99 73.49693205 -99 80 C-58.41 80 -17.82 80 24 80 C21.19548047 65.97740236 10.62337471 53.86784168 -1 46 C-27.33604397 28.52288124 -61.02394793 32.65558612 -84 54 Z " fill="#2295ED" transform="translate(1802,230)"/>
<path d="M0 0 C4.79964581 2.85780437 9.72854193 6.81935339 11.2283926 12.39487743 C11.65060544 15.38582568 11.74953337 18.25452834 11.76759338 21.27571106 C11.7773822 22.51946503 11.78717102 23.76321899 11.79725647 25.04466248 C11.80315984 26.41494713 11.80897034 27.78523218 11.81469727 29.15551758 C11.82428179 30.60451534 11.83429221 32.05351033 11.84469604 33.50250244 C11.87168895 37.42974935 11.89272884 41.35700821 11.91269803 45.28429627 C11.93459228 49.39094348 11.96196412 53.49755409 11.98875427 57.60417175 C12.03863469 65.37779002 12.08359075 73.15142865 12.12677664 80.92508668 C12.17618879 89.77632802 12.23109215 98.62753263 12.28645623 107.47873843 C12.40020487 125.68370817 12.50705937 143.88871259 12.609375 162.09375 C13.393125 161.59875 14.176875 161.10375 14.984375 160.59375 C17.609375 159.09375 17.609375 159.09375 19.609375 159.09375 C19.609375 158.43375 19.609375 157.77375 19.609375 157.09375 C22.03906649 155.44481545 24.46727739 153.91101529 26.984375 152.40625 C32.62642439 148.96542876 38.13709063 145.44049909 43.49609375 141.56640625 C45.8054678 139.95710123 48.19046693 138.53222428 50.609375 137.09375 C52.03275532 136.16647487 53.44953067 135.22897869 54.859375 134.28125 C56.02146484 133.50587891 56.02146484 133.50587891 57.20703125 132.71484375 C58.80631104 131.63565495 60.39756943 130.54448106 61.98046875 129.44140625 C66.09188389 126.60570845 69.70158151 124.35215859 74.609375 123.09375 C74.609375 122.43375 74.609375 121.77375 74.609375 121.09375 C76.8755274 119.61017556 79.1343425 118.24480882 81.484375 116.90625 C86.8396675 113.77987646 91.98220146 110.52388118 97.0234375 106.90625 C100.7325565 104.30650496 104.53489375 101.85530935 108.37182617 99.44946289 C111.14254693 97.70918477 113.7858106 95.95850753 116.38671875 93.96484375 C123.18032616 88.90794801 128.77750761 88.2104814 137.0078125 88.5546875 C140.65210164 89.10014509 142.72411312 89.83232852 145.609375 92.09375 C145.609375 92.75375 145.609375 93.41375 145.609375 94.09375 C146.2075 94.279375 146.805625 94.465 147.421875 94.65625 C150.68651685 96.80158607 151.72536473 99.4241534 152.609375 103.09375 C153.33265274 109.44639423 153.44548799 115.67499682 150.109375 121.3046875 C146.92765702 125.09954905 142.77756325 127.5037544 138.609375 130.09375 C136.94508231 131.172164 135.28082682 132.25063672 133.61767578 133.33081055 C130.01732343 135.6608914 126.39526376 137.95710225 122.77734375 140.25976562 C114.15600927 145.7454644 114.15600927 145.7454644 105.734375 151.53125 C100.73050193 155.08882089 95.538437 158.31780112 90.31689453 161.54272461 C86.36148385 163.98634816 82.46471369 166.49326532 78.609375 169.09375 C75.609375 171.09375 72.609375 173.09375 69.609375 175.09375 C71.78323588 179.80045797 75.18814277 182.74934114 78.921875 186.28125 C80.609375 188.09375 80.609375 188.09375 80.609375 190.09375 C81.599375 190.42375 82.589375 190.75375 83.609375 191.09375 C84.96311464 192.60278877 86.24380901 194.17787698 87.484375 195.78125 C91.22994555 200.48926666 95.16412217 204.91072557 99.296875 209.28125 C103.28965914 213.51394391 107.03298126 217.74059532 110.4140625 222.48828125 C112.86558044 225.78100633 115.95020233 228.47020829 118.921875 231.28125 C120.609375 233.09375 120.609375 233.09375 120.609375 235.09375 C121.599375 235.42375 122.589375 235.75375 123.609375 236.09375 C124.96311464 237.60278877 126.24380901 239.17787698 127.484375 240.78125 C131.75514933 246.14422235 136.29472477 251.16456548 141.00341797 256.14526367 C148.92842421 264.55083139 153.09739499 270.21902048 152.859375 282.25390625 C152.42135441 287.22954642 150.50386469 289.99480552 147.421875 293.78125 C142.45412363 297.86584557 137.0535385 299.72763331 130.59765625 299.3515625 C120.56558143 298.05074337 115.7865806 291.37139661 109.609375 284.09375 C108.27785817 282.57132603 106.94482823 281.05022218 105.609375 279.53125 C105.09375 278.93183594 104.578125 278.33242188 104.046875 277.71484375 C102.61583765 276.05225937 102.61583765 276.05225937 100.921875 274.50390625 C99.609375 273.09375 99.609375 273.09375 99.609375 271.09375 C98.619375 270.76375 97.629375 270.43375 96.609375 270.09375 C95.10823132 268.44106229 93.67963833 266.72168314 92.296875 264.96875 C91.50152344 263.97359375 90.70617188 262.9784375 89.88671875 261.953125 C89.13519531 261.00953125 88.38367187 260.0659375 87.609375 259.09375 C84.92947382 255.85628548 82.24697386 252.71456994 79.234375 249.78125 C76.8273089 247.3168728 74.74051761 244.79559185 72.609375 242.09375 C69.79051575 238.52248846 66.9229006 235.22319085 63.609375 232.09375 C62.23953302 230.79795353 60.8942701 229.47382251 59.609375 228.09375 C59.609375 227.43375 59.609375 226.77375 59.609375 226.09375 C59.04089844 225.87203125 58.47242188 225.6503125 57.88671875 225.421875 C54.91521309 223.68892144 53.29785576 221.54083478 51.171875 218.84375 C50.38425781 217.85632813 49.59664062 216.86890625 48.78515625 215.8515625 C48.06714844 214.94148437 47.34914063 214.03140625 46.609375 213.09375 C44.16856109 210.0693996 41.70762152 207.18971172 38.921875 204.46875 C36.82956633 202.31989245 35.84051188 200.75840243 34.609375 198.09375 C28.26724025 201.35094513 22.63912473 205.16768931 16.9921875 209.51953125 C14.609375 211.09375 14.609375 211.09375 11.609375 211.09375 C11.61603683 211.9632579 11.62269867 212.83276581 11.62956238 213.72862244 C11.6898553 221.95211363 11.73544146 230.17552981 11.76481152 238.39919186 C11.78041894 242.62633182 11.80156636 246.85328803 11.83569336 251.08032227 C11.86846363 255.16521048 11.88626498 259.24992273 11.89400673 263.33493233 C11.89951871 264.88773935 11.91028177 266.44053754 11.92656517 267.99326897 C12.11269045 286.48939255 12.11269045 286.48939255 6.421875 293.96875 C1.38009482 297.77809502 -3.88651434 299.73234655 -10.3125 299.44140625 C-15.82948094 298.51845267 -20.68281714 296.33056898 -24.328125 292.03125 C-28.13302594 286.61214866 -29.51167557 282.99103239 -29.52205276 276.3962822 C-29.52589391 275.47574421 -29.52973505 274.55520622 -29.5336926 273.60677314 C-29.53282612 272.60415702 -29.53195963 271.6015409 -29.53106689 270.56854248 C-29.53403802 269.49664618 -29.53700914 268.42474988 -29.5400703 267.32037187 C-29.54875396 263.72236243 -29.55026527 260.12438628 -29.55175781 256.52636719 C-29.5563862 253.94913156 -29.56141088 251.37189662 -29.56680298 248.79466248 C-29.58037108 241.78838109 -29.58640858 234.78210544 -29.59081364 227.7758131 C-29.59357851 223.3991884 -29.5978163 219.0225659 -29.60231781 214.64594269 C-29.61450825 202.5228222 -29.62480816 190.39970348 -29.6281929 178.276577 C-29.62841247 177.5010349 -29.62863203 176.7254928 -29.62885825 175.92644943 C-29.62907653 175.14907775 -29.62929481 174.37170606 -29.6295197 173.57077765 C-29.62996316 171.99559005 -29.63040973 170.42040245 -29.63085938 168.84521484 C-29.6310808 168.06387146 -29.63130223 167.28252808 -29.63153037 166.47750762 C-29.63547774 153.81918691 -29.65293089 141.16092379 -29.6762189 128.50262532 C-29.69994801 115.49936858 -29.71239545 102.49614072 -29.71356082 89.49286199 C-29.71447668 82.19488337 -29.72020652 74.89697982 -29.73838043 67.59902191 C-29.7554165 60.73391537 -29.75702239 53.86895336 -29.74824142 47.00383186 C-29.74747042 44.48556449 -29.75182203 41.96728949 -29.76169968 39.44904137 C-29.77440374 36.00815525 -29.76855021 32.56777479 -29.75811768 29.12689209 C-29.76617408 28.13319886 -29.77423048 27.13950563 -29.78253102 26.11570048 C-29.72697028 18.26645153 -28.29891071 10.45634258 -23.390625 4.09375 C-16.52042596 -1.05889928 -8.33823933 -3.16090119 0 0 Z " fill="#2295ED" transform="translate(1487.390625,135.90625)"/>
<path d="M0 0 C0.77695221 -0.0043103 1.55390442 -0.00862061 2.35440063 -0.01306152 C11.86021854 -0.03561953 20.41280666 0.65346748 29.5625 3.5 C31.04049072 3.9187439 31.04049072 3.9187439 32.54833984 4.34594727 C47.53695017 8.6680741 60.33346053 16.85938181 71.5625 27.5 C72.97208984 28.82451172 72.97208984 28.82451172 74.41015625 30.17578125 C79.00836648 34.63855082 83.16065072 39.05704116 86.5625 44.5 C86.5625 45.16 86.5625 45.82 86.5625 46.5 C87.5525 46.83 88.5425 47.16 89.5625 47.5 C89.5625 48.82 89.5625 50.14 89.5625 51.5 C90.2225 51.5 90.8825 51.5 91.5625 51.5 C94.85204652 55.98574525 96.55703264 61.35763095 98.5625 66.5 C98.85495605 67.23186523 99.14741211 67.96373047 99.44873047 68.71777344 C108.63904379 92.59171347 107.96321538 123.49488666 97.6953125 146.8671875 C95.83872353 150.85631397 93.76887487 154.69483382 91.5625 158.5 C90.96050781 159.54027344 90.35851563 160.58054687 89.73828125 161.65234375 C84.9298535 169.5295209 79.4113187 176.25752182 72.23828125 182.078125 C70.47435754 183.52919113 70.47435754 183.52919113 68.67578125 185.4375 C66.40372785 187.65495692 64.03893554 189.43287786 61.4375 191.25 C60.56867188 191.86359375 59.69984375 192.4771875 58.8046875 193.109375 C56.5625 194.5 56.5625 194.5 54.5625 194.5 C54.5625 195.16 54.5625 195.82 54.5625 196.5 C49.58756863 198.89011548 44.58981461 201.22211885 39.5625 203.5 C38.65757812 203.9125 37.75265625 204.325 36.8203125 204.75 C13.81774997 214.15679873 -17.24918414 213.00689921 -40.10253906 203.89941406 C-45.55757026 201.58490212 -50.56001909 198.85174645 -55.4375 195.5 C-56.30503906 194.91605469 -57.17257812 194.33210937 -58.06640625 193.73046875 C-82.07624066 176.9611534 -97.94126374 154.68515107 -103.859375 125.8515625 C-108.5352267 98.74426008 -103.89466709 71.87192992 -89.734375 48.1953125 C-89.30640625 47.63585937 -88.8784375 47.07640625 -88.4375 46.5 C-87.7775 46.5 -87.1175 46.5 -86.4375 46.5 C-86.375625 45.778125 -86.31375 45.05625 -86.25 44.3125 C-85.17988798 40.6082661 -83.23846168 39.10554575 -80.4375 36.5 C-79.839375 35.71625 -79.24125 34.9325 -78.625 34.125 C-75.58874313 30.48149175 -72.0633546 27.54196946 -68.4375 24.5 C-67.48875 23.695625 -66.54 22.89125 -65.5625 22.0625 C-63.4375 20.5 -63.4375 20.5 -61.4375 20.5 C-60.9425 19.015 -60.9425 19.015 -60.4375 17.5 C-58.2886957 16.06254438 -56.19897201 14.7954206 -53.9375 13.5625 C-53.29385498 13.20696045 -52.65020996 12.8514209 -51.98706055 12.48510742 C-50.14387211 11.47705949 -48.29239469 10.48629485 -46.4375 9.5 C-45.69113281 9.09265625 -44.94476562 8.6853125 -44.17578125 8.265625 C-41.96940563 7.17362571 -39.75663585 6.3292459 -37.4375 5.5 C-36.27992187 5.05527344 -35.12234375 4.61054688 -33.9296875 4.15234375 C-22.74787024 0.32496593 -11.69547999 0.01126318 0 0 Z M-44.125 57.9375 C-44.888125 58.783125 -45.65125 59.62875 -46.4375 60.5 C-46.96730469 61.03753906 -47.49710938 61.57507813 -48.04296875 62.12890625 C-59.79213118 74.55241355 -65.12388302 90.76778056 -64.98071289 107.64916992 C-64.46968473 120.04790774 -60.4462992 131.31234652 -53.4375 141.5 C-52.96699219 142.33789062 -52.49648437 143.17578125 -52.01171875 144.0390625 C-50.36965523 146.60606006 -48.72323575 148.20251914 -46.375 150.125 C-43.83163992 152.21841742 -42.29408743 153.71511886 -40.4375 156.5 C-38.1285415 157.95564775 -35.84976692 159.23482504 -33.4375 160.5 C-32.55578125 160.98984375 -31.6740625 161.4796875 -30.765625 161.984375 C-14.54671345 170.65162403 2.7047944 171.99772622 20.1953125 166.69140625 C37.81981303 160.45535908 50.93743146 147.81060364 59.05126953 131.15820312 C65.63932331 117.09153376 66.7092807 100.1372877 61.64941406 85.35180664 C55.1187749 67.62725667 43.11276666 54.2138855 26 46.078125 C24.865625 45.55734375 23.73125 45.0365625 22.5625 44.5 C21.799375 44.14421875 21.03625 43.7884375 20.25 43.421875 C-1.62569142 34.7057792 -27.43475095 42.79983226 -44.125 57.9375 Z " fill="#2295ED" transform="translate(1132.4375,224.5)"/>
<path d="M0 0 C1.10334183 -0.02296143 1.10334183 -0.02296143 2.22897339 -0.04638672 C18.74709241 -0.32608615 33.89484064 -0.20650263 49.375 6.30859375 C50.03000488 6.57591309 50.68500977 6.84323242 51.35986328 7.11865234 C63.30240999 12.13396778 77.01311119 20.35430559 84.375 31.30859375 C86.25034209 36.93462002 86.35961148 43.77778951 84.76171875 49.5078125 C81.91136473 55.09551091 76.24162883 59.35305081 70.375 61.30859375 C62.81482184 62.27962581 56.61144474 60.78119554 50.375 56.30859375 C50.045 55.31859375 49.715 54.32859375 49.375 53.30859375 C47.73617177 52.57615655 46.06065209 51.92568308 44.375 51.30859375 C42.56763306 50.33927964 40.76064762 49.36919981 38.95947266 48.38842773 C24.45013239 40.63971825 7.69452634 38.99010495 -8.234375 43.5078125 C-17.46726519 46.44932624 -25.79217661 50.26814313 -32.625 57.30859375 C-33.3675 58.00984375 -34.11 58.71109375 -34.875 59.43359375 C-47.45237754 72.58267027 -54.33794651 88.46573848 -54.16772461 106.74462891 C-53.61513661 119.44982451 -49.82708406 134.10650969 -40.625 143.30859375 C-40.625 144.29859375 -40.625 145.28859375 -40.625 146.30859375 C-39.985625 146.57671875 -39.34625 146.84484375 -38.6875 147.12109375 C-36.625 148.30859375 -36.625 148.30859375 -35.625 151.30859375 C-33.85908113 152.31775408 -33.85908113 152.31775408 -31.625 153.30859375 C-28.375 155.30859375 -28.375 155.30859375 -25.625 157.30859375 C-25.625 157.96859375 -25.625 158.62859375 -25.625 159.30859375 C-24.3875 159.67984375 -24.3875 159.67984375 -23.125 160.05859375 C-20.49409638 160.99820218 -18.46162886 161.91664018 -16.0625 163.24609375 C-1.60732781 170.51451367 15.9382835 170.12829368 31.11328125 165.5 C37.92075107 163.01343917 43.18076605 159.47605117 48.9375 155.12109375 C55.90386298 149.99307656 61.42271098 148.65976957 70.0546875 149.84765625 C76.48254658 151.12457102 79.43819762 154.18208342 83.17578125 159.2734375 C85.8931289 163.88496234 85.99303447 169.08963598 85.375 174.30859375 C83.61418504 179.66759581 80.7027649 183.66416015 76.375 187.30859375 C75.715 187.30859375 75.055 187.30859375 74.375 187.30859375 C74.375 187.96859375 74.375 188.62859375 74.375 189.30859375 C70.55460184 192.23691924 66.44548768 194.74349324 62.375 197.30859375 C61.24964844 198.03175781 61.24964844 198.03175781 60.1015625 198.76953125 C37.55136903 212.33420702 6.42299376 213.35550403 -18.625 207.30859375 C-31.47791619 203.45120915 -43.14766772 197.69045958 -53.625 189.30859375 C-54.56601563 188.57640625 -55.50703125 187.84421875 -56.4765625 187.08984375 C-63.5033089 181.46844663 -69.22012683 175.56030582 -74.625 168.30859375 C-75.25148438 167.48488281 -75.87796875 166.66117188 -76.5234375 165.8125 C-92.80584923 143.59305167 -98.38986586 115.47014465 -94.3515625 88.44140625 C-92.46610427 77.20832411 -89.41809838 66.68054434 -84.625 56.30859375 C-83.965 56.30859375 -83.305 56.30859375 -82.625 56.30859375 C-82.3465625 55.13296875 -82.3465625 55.13296875 -82.0625 53.93359375 C-77.49266361 42.4096585 -67.72300588 32.62935176 -58.3515625 24.78125 C-56.62548071 23.35358848 -56.62548071 23.35358848 -55.16796875 21.8203125 C-41.43476023 8.36524491 -19.03288595 0.3816781 0 0 Z " fill="#2295ED" transform="translate(1352.625,224.69140625)"/>
<path d="M0 0 C1.2890625 -0.01675781 2.578125 -0.03351563 3.90625 -0.05078125 C7.64326431 0.32698215 9.57241374 0.99858086 12.5 3.3125 C12.5 3.9725 12.5 4.6325 12.5 5.3125 C13.098125 5.4775 13.69625 5.6425 14.3125 5.8125 C17.67487682 8.11812982 18.61359908 11.41770807 19.5 15.3125 C19.5478332 17.31192791 19.55711955 19.31331583 19.5 21.3125 C20.180625 20.8278125 20.86125 20.343125 21.5625 19.84375 C29.81361924 14.13818882 38.25044396 9.22766732 47.5 5.3125 C48.14598145 5.03712402 48.79196289 4.76174805 49.45751953 4.47802734 C61.08406973 -0.15921886 73.22676065 -0.20705865 85.5625 -0.3125 C86.36230286 -0.32571289 87.16210571 -0.33892578 87.98614502 -0.35253906 C103.21675046 -0.54598815 120.23666835 1.38741009 132.5 11.3125 C133.34498047 11.97572266 133.34498047 11.97572266 134.20703125 12.65234375 C138.45141865 17.06042653 138.32654704 23.15561943 138.3034668 28.95874023 C137.96814121 34.9965849 136.26917493 38.56891311 131.71484375 42.70703125 C126.20802401 46.69874714 121.36078079 47.91222414 114.5 47.3125 C110.8515625 46.25390625 110.8515625 46.25390625 107.125 44.875 C90.26671107 39.14558152 71.99775942 40.09261029 55.828125 47.54296875 C40.38218016 55.75542534 29.56378021 67.92184583 23.5 84.3125 C20.30339441 95.63529158 20.07089889 106.77172664 20.08930969 118.46330261 C20.09384992 121.60028851 20.07961919 124.73672864 20.06091309 127.87365723 C20.01825216 135.65048588 20.00686544 143.42729841 19.99468994 151.20422363 C19.98314742 157.81059117 19.95958011 164.41670363 19.91999817 171.02296448 C19.90647675 174.10457233 19.91058675 177.18583045 19.91540527 180.26745605 C19.90606482 182.15942834 19.89589604 184.05139678 19.88476562 185.94335938 C19.89091385 186.79229767 19.89706207 187.64123596 19.90339661 188.51589966 C19.83514653 195.13653395 18.52091634 199.77191946 14.3125 205.0625 C9.29243194 209.07855445 3.95670432 210.89722726 -2.4921875 210.59375 C-8.64204199 209.73229178 -12.9533435 207.42444491 -17.2734375 203.0078125 C-20.48321492 198.57136855 -20.78987142 194.16629913 -20.76069641 188.84890747 C-20.76452196 188.10636778 -20.76834751 187.36382808 -20.77228898 186.59878719 C-20.78259191 184.11542764 -20.778632 181.63230047 -20.7746582 179.14892578 C-20.7790062 177.36646308 -20.78418964 175.58400224 -20.79014587 173.80154419 C-20.80353829 168.96266055 -20.80411422 164.12385501 -20.80158257 159.28495646 C-20.80051294 155.24421525 -20.8053961 151.20348985 -20.810188 147.16275203 C-20.82128422 137.62883439 -20.82172006 128.09495614 -20.81567383 118.56103516 C-20.80963426 108.72885782 -20.82194438 98.8968236 -20.8432439 89.06467068 C-20.86086362 80.62035972 -20.86686063 72.17609429 -20.86360615 63.73176563 C-20.8617936 58.68961819 -20.86442662 53.64757283 -20.87832069 48.60544205 C-20.89090026 43.86283578 -20.88895367 39.12045244 -20.87590981 34.37784958 C-20.87354469 32.63922297 -20.8762764 30.90058066 -20.88453293 29.16197205 C-20.89500785 26.78441014 -20.88689419 24.40759521 -20.8742218 22.03005981 C-20.88159609 21.34570771 -20.88897037 20.66135561 -20.89656812 19.95626557 C-20.84118682 15.00082075 -19.75069602 11.64178532 -17.5 7.3125 C-15.375 6.0625 -15.375 6.0625 -13.5 5.3125 C-13.17 4.3225 -12.84 3.3325 -12.5 2.3125 C-8.42899615 0.04154823 -4.59267682 0.01377803 0 0 Z " fill="#2295ED" transform="translate(1910.5,224.6875)"/>
<path d="M0 0 C25.41 0 50.82 0 77 0 C77 23.76 77 47.52 77 72 C51.59 72 26.18 72 0 72 C0 48.24 0 24.48 0 0 Z " fill="#2296ED" transform="translate(143,169)"/>
<path d="M0 0 C25.41 0 50.82 0 77 0 C77 23.76 77 47.52 77 72 C51.59 72 26.18 72 0 72 C0 48.24 0 24.48 0 0 Z " fill="#2296ED" transform="translate(143,84)"/>
<path d="M0 0 C25.08 0 50.16 0 76 0 C76 23.76 76 47.52 76 72 C50.92 72 25.84 72 0 72 C0 48.24 0 24.48 0 0 Z " fill="#2295EC" transform="translate(407,169)"/>
<path d="M0 0 C25.08 0 50.16 0 76 0 C76 23.76 76 47.52 76 72 C50.92 72 25.84 72 0 72 C0 48.24 0 24.48 0 0 Z " fill="#2296EC" transform="translate(320,169)"/>
<path d="M0 0 C25.08 0 50.16 0 76 0 C76 23.76 76 47.52 76 72 C50.92 72 25.84 72 0 72 C0 48.24 0 24.48 0 0 Z " fill="#2295EC" transform="translate(231,169)"/>
<path d="M0 0 C25.08 0 50.16 0 76 0 C76 23.76 76 47.52 76 72 C50.92 72 25.84 72 0 72 C0 48.24 0 24.48 0 0 Z " fill="#2295EC" transform="translate(55,169)"/>
<path d="M0 0 C25.08 0 50.16 0 76 0 C76 23.76 76 47.52 76 72 C50.92 72 25.84 72 0 72 C0 48.24 0 24.48 0 0 Z " fill="#2296ED" transform="translate(320,84)"/>
<path d="M0 0 C25.08 0 50.16 0 76 0 C76 23.76 76 47.52 76 72 C50.92 72 25.84 72 0 72 C0 48.24 0 24.48 0 0 Z " fill="#2296ED" transform="translate(231,84)"/>
<path d="M0 0 C25.08 0 50.16 0 76 0 C76 23.43 76 46.86 76 71 C50.92 71 25.84 71 0 71 C0 47.57 0 24.14 0 0 Z " fill="#2296ED" transform="translate(320,0)"/>
</svg>
