<?xml version="1.0" encoding="UTF-8"?>
<svg version="1.1" xmlns="http://www.w3.org/2000/svg" width="3440" height="3109">
<path d="M0 0 C1.34632551 0.13050435 2.69268098 0.26069982 4.0390625 0.390625 C78.05728625 7.63333096 150.53346562 25.88160821 219 55 C220.14662109 55.48726562 221.29324219 55.97453125 222.47460938 56.4765625 C252.09721764 69.18384645 281.27625333 83.54260142 309 100 C309.88977539 100.52271484 310.77955078 101.04542969 311.69628906 101.58398438 C347.71453054 122.79828078 382.06614131 147.02404375 414.30859375 173.60839844 C416.73677601 175.60618119 419.18286415 177.58181424 421.625 179.5625 C431.57462286 187.72476546 441.26918607 196.13123136 450.671875 204.91796875 C453.2789262 207.35225417 455.93652275 209.72441765 458.60180664 212.09472656 C463.79429365 216.76541766 468.76766565 221.62272734 473.69921875 226.56640625 C474.5785054 227.44473618 475.45779205 228.3230661 476.36372375 229.22801208 C478.20603138 231.06964445 480.04709788 232.91251916 481.88696289 234.7565918 C484.68718845 237.56218785 487.49273172 240.36238656 490.29882812 243.16210938 C492.09927914 244.96322104 493.89942001 246.76464279 495.69921875 248.56640625 C496.52854416 249.39370743 497.35786957 250.22100861 498.21232605 251.07337952 C502.47503578 255.35313998 506.59268451 259.70047186 510.52488708 264.28677368 C512.74055715 266.86009822 515.06049887 269.32771275 517.375 271.8125 C521.62485297 276.41178532 525.63576503 281.1508794 529.5625 286.03125 C532.42926803 289.52282645 535.39793318 292.91509547 538.375 296.3125 C543.98520685 302.74084512 549.31468082 309.33881211 554.52392578 316.09423828 C556.11871479 318.15327285 557.72812291 320.2002889 559.33984375 322.24609375 C567.50852344 332.63597123 575.37329389 343.20648815 583 354 C583.63196289 354.89380371 584.26392578 355.78760742 584.91503906 356.70849609 C593.71000533 369.17913097 602.27448367 381.77404 610.48828125 394.63525391 C611.9433053 396.91131381 613.40844462 399.18057812 614.875 401.44921875 C641.81111124 443.350857 665.74875926 487.72490827 686.1652832 533.14630127 C687.03049936 535.06773151 687.90055673 536.98691412 688.77148438 538.90576172 C727.10184646 623.46568299 755.04189085 712.61350761 804.13671875 1005.890625 C804.26721367 1007.37825348 804.26721367 1007.37825348 804.40034485 1008.89593506 C804.85176002 1014.28710051 805.0883005 1019.59009624 805 1025 C804.19747803 1024.73074707 803.39495605 1024.46149414 802.56811523 1024.18408203 C792.37887814 1020.76900417 782.18200779 1017.37714327 771.98303223 1013.99127197 C768.92657463 1012.97560049 765.87095016 1011.95745179 762.81542969 1010.93896484 C712.7707913 994.27184622 662.37526029 979.11165167 611.37927246 965.62982178 C607.63949914 964.63985921 603.90176137 963.64229225 600.1640625 962.64453125 C598.96475098 962.32460205 597.76543945 962.00467285 596.52978516 961.67504883 C595.69495605 961.45228271 594.86012695 961.2295166 594 961 C593.80008175 959.30130396 593.60017984 957.60260599 593.40034485 955.90390015 C593.22140196 954.38355364 593.04226746 952.86322968 592.86296082 951.34292603 C592.39682503 947.38768694 591.93363782 943.43216473 591.47900391 939.47558594 C581.46012461 852.54394883 559.12916307 767.21950758 461 541 C460.49388184 540.08428223 459.98776367 539.16856445 459.46630859 538.22509766 C447.73143016 517.00905917 435.06458691 496.4231657 421.625 476.25 C421.21651825 475.63623505 420.8080365 475.02247009 420.38717651 474.3901062 C414.43510937 465.46373229 408.28236076 456.69661257 402 448 C401.37609375 447.13439453 400.7521875 446.26878906 400.109375 445.37695312 C392.51119722 434.87462195 384.63309975 424.66805242 376.37646484 414.67626953 C374.53388938 412.43236688 372.73538319 410.15479002 370.9375 407.875 C363.05271073 398.00661594 354.70436378 388.55488428 346.08203125 379.328125 C343.6402031 376.71419284 341.26515923 374.04622224 338.890625 371.37109375 C333.93867571 365.85881 328.75524746 360.6035437 323.5065918 355.3762207 C321.93225845 353.8072764 320.36338411 352.23301442 318.79492188 350.65820312 C313.8978371 345.75789003 308.96067268 340.95213765 303.69213867 336.44702148 C301.30006389 334.40145414 298.99920388 332.26053982 296.6875 330.125 C291.28508543 325.2042822 285.69831141 320.57207447 280 316 C278.87979484 315.08774711 277.76002295 314.17496197 276.640625 313.26171875 C250.94618062 292.38936322 223.45269306 273.92128756 194.29101562 258.23583984 C192.74448182 257.40159495 191.20157358 256.56059866 189.66210938 255.71337891 C121.70807654 218.31650794 43.09276177 199.80758228 -34.25 199.75 C-35.0839328 199.74932526 -35.9178656 199.74865051 -36.77706909 199.74795532 C-119.44812302 199.85234659 -202.43624949 219.63412287 -357 279 C-357.62003906 279.2990625 -358.24007812 279.598125 -358.87890625 279.90625 C-376.43893099 288.3883378 -393.60782193 297.2878871 -410.30957031 307.38134766 C-412.91058066 308.94620234 -415.52602166 310.48306676 -418.1484375 312.01171875 C-451.06051682 331.28874796 -482.21260428 354.45296514 -510.18359375 380.40234375 C-512.67602905 382.70119184 -515.20449301 384.9479638 -517.75 387.1875 C-522.37194985 391.33751656 -526.78797808 395.67962001 -531.1875 400.0625 C-532.18571777 401.05382935 -532.18571777 401.05382935 -533.20410156 402.06518555 C-537.67251946 406.54749087 -541.87030245 411.20615741 -546 416 C-547.02178001 417.15641455 -548.04516759 418.31141108 -549.0703125 419.46484375 C-556.56343961 427.95673047 -563.51582643 436.75650443 -570.32763672 445.79980469 C-572.59776406 448.78643061 -574.91472119 451.73510072 -577.23217773 454.68505859 C-584.75581777 464.2711797 -591.96816154 474.04836024 -599 484 C-599.94794434 485.34070557 -599.94794434 485.34070557 -600.91503906 486.70849609 C-610.25051875 499.94554044 -619.31315441 513.32852332 -628 527 C-628.88703613 528.393396 -628.88703613 528.393396 -629.79199219 529.81494141 C-658.26817068 574.65630927 -683.7190627 621.44287636 -705.14117432 670.05706787 C-705.97737078 671.94880564 -706.8200594 673.83748758 -707.66552734 675.72509766 C-745.87604525 761.14561038 -771.82961281 852.06961693 -808.16796875 1172.8359375 C-808.17120262 1175.1371767 -808.17456804 1177.43841571 -808.17805481 1179.73965454 C-808.18398055 1184.53119378 -808.18590182 1189.32271518 -808.18530273 1194.11425781 C-808.18522199 1198.92256473 -808.19209394 1203.73077533 -808.20581055 1208.5390625 C-808.29241569 1239.41641266 -807.84581677 1270.17360608 -806 1301 C-805.92194122 1302.30380615 -805.84388245 1303.6076123 -805.76345825 1304.95092773 C-805.3108203 1312.24436064 -804.77568977 1319.52885632 -804.1875 1326.8125 C-804.10351959 1327.87466736 -804.01953918 1328.93683472 -803.93301392 1330.03118896 C-796.30094063 1426.18383559 -779.70292522 1520.79555797 -742 1659 C-741.72518799 1659.90030945 -741.45037598 1660.8006189 -741.16723633 1661.72821045 C-716.25990205 1743.18800344 -683.97802081 1822.10552125 -622.48925781 1944.29492188 C-620.85024537 1947.27201333 -619.24642783 1950.26632006 -617.6484375 1953.265625 C-610.2087011 1967.22939007 -602.47061755 1980.97248038 -594.41699219 1994.59130859 C-592.58166345 1997.71111447 -590.78548605 2000.85144777 -589 2004 C-587.10416667 2003.85416667 -585.20833333 2003.70833333 -583.3125 2003.5625 C-582.10722656 2003.47226563 -580.90195313 2003.38203125 -579.66015625 2003.2890625 C-577.47875881 2003.11678565 -575.29833594 2002.92954798 -573.12109375 2002.7109375 C-513.51927892 1997.03457418 -452.78969916 2014.50280054 -406 2052 C-404.54013672 2053.15435547 -404.54013672 2053.15435547 -403.05078125 2054.33203125 C-388.08879551 2066.4251156 -374.19662821 2080.33779051 -363 2096 C-362.5472168 2096.62438965 -362.09443359 2097.2487793 -361.62792969 2097.89208984 C-354.67421374 2107.52713182 -348.49727271 2117.46724513 -343 2128 C-342.63165039 2128.69867187 -342.26330078 2129.39734375 -341.88378906 2130.1171875 C-328.91763073 2155.03740161 -320.81374513 2183.0588565 -318 2211 C-317.88914062 2211.97710938 -317.77828125 2212.95421875 -317.6640625 2213.9609375 C-314.41262357 2247.44197079 -318.49189769 2282.39143814 -330 2314 C-330.28182129 2314.7847168 -330.56364258 2315.56943359 -330.85400391 2316.37792969 C-338.0387324 2336.09526851 -347.62542191 2355.02417034 -360 2372 C-360.40428223 2372.5583252 -360.80856445 2373.11665039 -361.22509766 2373.69189453 C-366.55941458 2380.99671616 -372.34762498 2387.75543655 -378.53515625 2394.34765625 C-380.49548868 2396.45711064 -382.36054683 2398.58945942 -384.1875 2400.8125 C-386.75070111 2403.83057906 -389.55850513 2406.3926169 -392.58203125 2408.9453125 C-394.37754568 2410.47106466 -396.14111809 2412.03457256 -397.88671875 2413.6171875 C-444.0023447 2455.08893338 -505.87633586 2472.7151707 -567 2470 C-619.5010603 2466.73192247 -670.78880746 2445.23133801 -709 2409 C-710.28693749 2407.9110529 -711.57837891 2406.82739855 -712.875 2405.75 C-728.52266471 2392.04634251 -741.3715536 2374.79089059 -752 2357 C-752.39251953 2356.35047363 -752.78503906 2355.70094727 -753.18945312 2355.03173828 C-784.58186092 2302.58253714 -793.17019108 2237.96108612 -778.39941406 2178.84594727 C-773.95177935 2161.8233161 -768.25342748 2145.17297438 -759.67578125 2129.74609375 C-759.11383057 2128.73421997 -759.11383057 2128.73421997 -758.54052734 2127.7019043 C-757.82728616 2126.43976103 -757.09807597 2125.18645247 -756.35009766 2123.94458008 C-754.80892145 2121.25232588 -754.00384228 2119.27933383 -753.9609375 2116.16015625 C-755.44955778 2111.63273592 -757.75297426 2107.76927277 -760.1875 2103.6875 C-761.28887016 2101.80012632 -762.38908317 2099.91207702 -763.48828125 2098.0234375 C-764.35380615 2096.54375488 -764.35380615 2096.54375488 -765.23681641 2095.03417969 C-779.4305642 2070.60882694 -792.67611969 2045.63912702 -805.62109375 2020.53515625 C-807.78225903 2016.3454693 -809.95999717 2012.16543314 -812.16015625 2007.99609375 C-818.52090414 1995.9362216 -824.57277931 1983.76968839 -830.37890625 1971.43359375 C-831.87073812 1968.273786 -833.37255177 1965.11900636 -834.87823486 1961.96578979 C-865.15390761 1898.55009207 -891.54806082 1833.6480327 -915.12487793 1767.45678711 C-915.6866024 1765.87982146 -916.24911514 1764.30313624 -916.81262207 1762.72680664 C-953.81585791 1659.20175173 -980.03672857 1551.09274169 -1014 1215 C-1014.01804687 1213.80777832 -1014.03609375 1212.61555664 -1014.0546875 1211.38720703 C-1014.14296095 1204.58904764 -1014.09639014 1197.79784475 -1014 1191 C-1013.9818292 1189.48437625 -1013.96377155 1187.96875114 -1013.94580078 1186.453125 C-1012.5960782 1078.8207638 -1000.9322499 971.4009237 -970 834 C-969.76087891 833.01878174 -969.52175781 832.03756348 -969.27539062 831.02661133 C-955.96116034 776.54034292 -939.70490101 722.87615449 -921 670 C-920.58231354 668.8165802 -920.58231354 668.8165802 -920.15618896 667.60925293 C-906.61486676 629.28338705 -891.24564409 591.80731503 -874 555 C-873.45472656 553.83500977 -872.90945313 552.67001953 -872.34765625 551.46972656 C-866.31815491 538.6404514 -860.05951063 525.95860936 -853.33349609 513.47998047 C-851.89560834 510.80585674 -850.47315139 508.12381331 -849.05078125 505.44140625 C-841.41928617 491.12163458 -833.30318771 477.12080966 -824.93603516 463.22070312 C-823.13887058 460.23101901 -821.35506163 457.23379873 -819.57421875 454.234375 C-799.12738671 419.99516529 -776.17108247 386.86052794 -751.32666016 355.67382812 C-749.96165981 353.95162673 -748.61004984 352.21965176 -747.26171875 350.484375 C-742.29788962 344.10293596 -737.23757707 337.83149817 -731.984375 331.68554688 C-729.10088109 328.311859 -726.28362156 324.89473817 -723.5 321.4375 C-719.37309794 316.36392507 -714.99897442 311.56258858 -710.5546875 306.76953125 C-708.49886278 304.54081607 -706.48383043 302.29232081 -704.5 300 C-699.77713552 294.5659277 -694.89328421 289.28013394 -690 284 C-689.42636719 283.3797998 -688.85273437 282.75959961 -688.26171875 282.12060547 C-680.16347358 273.38291107 -671.91133035 264.81203402 -663.5 256.375 C-662.6757251 255.54613281 -661.8514502 254.71726562 -661.00219727 253.86328125 C-656.69620291 249.5681992 -652.30793439 245.44496052 -647.69726562 241.47900391 C-645.70161561 239.73998667 -643.83825381 237.90390573 -642 236 C-638.8501997 232.80738688 -635.58780511 229.82838721 -632.1875 226.90625 C-629.64488601 224.69054352 -627.16889802 222.40901408 -624.6875 220.125 C-620.22477168 216.05459944 -615.63742 212.19823091 -610.9375 208.40625 C-607.63644719 205.70219611 -604.41278397 202.9184058 -601.1875 200.125 C-594.29668944 194.18574195 -587.2108616 188.54419215 -580 183 C-579.21705566 182.39639648 -578.43411133 181.79279297 -577.62744141 181.17089844 C-557.90756709 165.98663304 -537.79447166 151.67786348 -517 138 C-515.52343448 137.02213998 -514.04687167 136.04427587 -512.5703125 135.06640625 C-456.95239267 98.44552612 -396.62354248 68.5728221 -334 46 C-333.33266846 45.75936829 -332.66533691 45.51873657 -331.9777832 45.27081299 C-268.68183877 22.51395343 -202.96379652 7.55193633 -136 1 C-135.16196838 0.9175 -134.32393677 0.835 -133.46051025 0.75 C-89.52695128 -3.50643631 -43.953326 -4.44363296 0 0 Z " fill="#764ABC" transform="translate(1788,2)"/>
<path d="M0 0 C3.17741245 2.8038212 6.2926043 5.67094851 9.3828125 8.5703125 C11.48061379 10.51782355 13.60309773 12.37088035 15.8125 14.1875 C18.83057906 16.75070111 21.3926169 19.55850513 23.9453125 22.58203125 C25.47106466 24.37754568 27.03457256 26.14111809 28.6171875 27.88671875 C58 60.57739824 58 60.57739824 58 72 C58.73320969 71.97068893 59.46641937 71.94137787 60.22184753 71.91117859 C82.92160783 71.03002293 105.59715845 70.79887695 128.3125 70.8125 C129.64512941 70.81267939 129.64512941 70.81267939 131.00468063 70.8128624 C163.70836296 70.81840688 196.33028605 71.40133362 229 73 C230.01799683 73.0485614 231.03599365 73.0971228 232.08483887 73.14715576 C288.57249651 75.85518767 344.9886515 81.24002369 401 89 C402.09002319 89.1506189 403.18004639 89.30123779 404.30310059 89.4564209 C518.42872782 105.29908562 630.6918529 131.94058453 810.68267822 195.08258057 C812.98199746 195.99287286 815.282647 196.89973491 817.58349609 197.80615234 C877.29727283 221.37253905 936.56339885 248.22898848 992.58105469 279.65380859 C995.15994205 281.08901095 997.7533057 282.4947169 1000.3515625 283.89453125 C1013.16454553 290.80134357 1025.7690176 298.02446458 1038.30810547 305.41601562 C1040.66082195 306.80041836 1043.018069 308.17638663 1045.37890625 309.546875 C1090.15045055 335.58553292 1133.16697554 364.4931835 1175 395 C1175.7719873 395.56187012 1176.54397461 396.12374023 1177.33935547 396.70263672 C1188.36426199 404.7362017 1199.22066968 412.95951822 1209.94677734 421.38769531 C1211.85336663 422.88485532 1213.76375297 424.37698384 1215.67578125 425.8671875 C1223.9340883 432.31356972 1232.07815402 438.89571033 1240.19140625 445.5234375 C1241.7923548 446.83047541 1243.39597976 448.13423356 1245 449.4375 C1250.44216357 453.86716803 1255.81842676 458.36768937 1261.16259766 462.91455078 C1264.59079494 465.8261286 1268.05992273 468.67777946 1271.5625 471.5 C1276.63607493 475.62690206 1281.43741142 480.00102558 1286.23046875 484.4453125 C1288.45918393 486.50113722 1290.70767919 488.51616957 1293 490.5 C1296.88284848 493.86728353 1300.6651628 497.34096091 1304.44628906 500.82128906 C1307.52660337 503.65502411 1310.62685589 506.46335627 1313.75 509.25 C1325.05921999 519.42469633 1336.04112375 529.8999555 1346.70898438 540.74584961 C1350.0862228 544.16364271 1353.48660148 547.47424701 1357.1328125 550.60546875 C1360.82538818 553.78463334 1364.10977535 557.20215821 1367.375 560.8125 C1373.62452676 567.62440606 1380.10416014 574.17586693 1386.69482422 580.6574707 C1390.72002926 584.63616507 1394.55175245 588.69830215 1398.24243164 592.98852539 C1401.38948174 596.59021254 1404.70478472 600.03434256 1408 603.5 C1412.58585226 608.32305152 1417.08990459 613.18972248 1421.45019531 618.21826172 C1423.39024841 620.44865042 1425.38050303 622.63078013 1427.375 624.8125 C1430.50422827 628.27530082 1433.50500349 631.80679003 1436.4375 635.4375 C1439.51336588 639.24087503 1442.68753166 642.90082652 1446 646.5 C1450.03954818 650.89378548 1453.84679619 655.41838824 1457.59375 660.0625 C1460.297795 663.36354194 1463.08132861 666.58745615 1465.875 669.8125 C1471.3435674 676.14785571 1476.53842205 682.66585589 1481.66308594 689.28076172 C1482.95731916 690.9451135 1484.26141966 692.60106712 1485.5703125 694.25390625 C1497.51016812 709.33311078 1509.22638786 724.52412023 1519.9375 740.5078125 C1522.16036417 743.81047965 1524.47139373 747.0337375 1526.828125 750.2421875 C1531.31464422 756.37653322 1535.5485608 762.66840738 1539.75 769 C1540.13985077 769.58616089 1540.52970154 770.17232178 1540.93136597 770.77624512 C1551.01566907 785.94446816 1560.74683105 801.31075348 1570 817 C1570.76135254 818.28487305 1570.76135254 818.28487305 1571.53808594 819.59570312 C1580.38592193 834.54353579 1588.84671755 849.66295888 1597 865 C1597.72171387 866.34868164 1597.72171387 866.34868164 1598.45800781 867.72460938 C1614.16553726 897.11566859 1628.32955357 927.18290478 1641 958 C1641.42058685 959.02133026 1641.42058685 959.02133026 1641.84967041 960.06329346 C1675.62969126 1042.2491006 1698.51909132 1128.67299231 1714 1270 C1714.04236786 1270.68739258 1714.08473572 1271.37478516 1714.12838745 1272.08300781 C1715.14962467 1288.92147836 1715.20312905 1305.76191974 1715.1875 1322.625 C1715.18708584 1323.34465061 1715.18667168 1324.06430122 1715.18624496 1324.80575943 C1715.17032453 1346.92277591 1715.05007426 1368.95860624 1713 1391 C1712.92223328 1391.84576599 1712.84446655 1392.69153198 1712.76434326 1393.56292725 C1704.56982324 1481.86890869 1684.09413415 1567.3838114 1624 1684 C1623.43748535 1684.93247559 1622.8749707 1685.86495117 1622.29541016 1686.82568359 C1615.23930453 1698.48617978 1607.89939169 1709.89323593 1600 1721 C1599.47905762 1721.73347656 1598.95811523 1722.46695313 1598.42138672 1723.22265625 C1587.93615058 1737.94620732 1576.94723084 1752.18309119 1565.49707031 1766.16650391 C1564.16580047 1767.79694039 1562.84393831 1769.43504819 1561.5234375 1771.07421875 C1556.9713327 1776.71207293 1552.23300382 1782.12335167 1547.328125 1787.45703125 C1545.39305738 1789.57067054 1543.49791703 1791.70659848 1541.625 1793.875 C1532.00051877 1804.91136749 1521.80130344 1815.35938513 1511.43505859 1825.6953125 C1509.23547928 1827.88948502 1507.04135993 1830.08901723 1504.84765625 1832.2890625 C1503.4248 1833.71125856 1502.00163391 1835.13314471 1500.578125 1836.5546875 C1499.93522522 1837.19961151 1499.29232544 1837.84453552 1498.62994385 1838.50900269 C1494.81157594 1842.30799964 1490.88269934 1845.92472083 1486.79981995 1849.43829346 C1484.02717775 1851.84411937 1481.36450336 1854.36401563 1478.6875 1856.875 C1473.89485085 1861.3337948 1468.97810172 1865.56120791 1463.87109375 1869.66015625 C1460.56427748 1872.35509903 1457.3471208 1875.14252422 1454.125 1877.9375 C1448.11535872 1883.12771924 1441.92451744 1888.01430985 1435.58691406 1892.79541016 C1432.97666241 1894.77679195 1430.39872516 1896.79991125 1427.8125 1898.8125 C1420.42619952 1904.51531641 1412.85276541 1909.95778606 1405.26123047 1915.3828125 C1403.130368 1916.90676337 1401.00446034 1918.43740932 1398.87890625 1919.96875 C1363.03610169 1945.66386266 1324.82372391 1967.74842164 1285.74365234 1988.09173584 C1284.1677806 1988.9126035 1282.59355623 1989.73663184 1281.01953125 1990.56103516 C1205.60509061 2029.90590482 1122.5321462 2056.91944776 929.875 2090.1875 C928.69432953 2090.30585709 928.69432953 2090.30585709 927.48980713 2090.42660522 C896.39653532 2093.50720355 865.2786939 2094.38147876 834.05160141 2094.31785583 C831.26288467 2094.31240299 828.47417645 2094.31004437 825.68545532 2094.3079834 C797.55768476 2094.27563113 769.57843681 2093.71757529 741.54455566 2091.22460938 C739.00788242 2091.00069579 736.47048478 2090.78803028 733.93261719 2090.578125 C639.49910253 2082.6832472 546.4760195 2061.89459718 306.3125 1973.375 C305.21268799 1972.87782471 304.11287598 1972.38064941 302.97973633 1971.8684082 C301.46802856 1971.17171021 301.46802856 1971.17171021 299.92578125 1970.4609375 C299.04317627 1970.05665527 298.16057129 1969.65237305 297.2512207 1969.23583984 C295.07500802 1968.04117673 293.63668388 1966.84818246 292 1965 C294.13345981 1963.37450681 296.26692142 1961.74901601 298.40039062 1960.12353516 C300.28062876 1958.69095708 302.1608364 1957.25833898 304.04101562 1955.82568359 C308.89773697 1952.12505555 313.7548956 1948.42500536 318.61328125 1944.7265625 C337.73405224 1930.16932804 356.76811778 1915.50493646 375.6484375 1900.63671875 C377.8999582 1898.86372825 380.15536764 1897.09587245 382.4140625 1895.33203125 C390.1180535 1889.31002019 397.72987632 1883.18272141 405.30859375 1877.00390625 C408.29643058 1874.56883821 411.29847033 1872.15262587 414.3125 1869.75 C422.3674893 1863.31943354 430.31133405 1856.76545961 438.16113281 1850.08666992 C441.589839 1847.17470858 445.05942694 1844.32262002 448.5625 1841.5 C453.62807729 1837.37960332 458.42172163 1833.01136444 463.2109375 1828.578125 C465.56078676 1826.40599543 467.91984364 1824.24975275 470.3125 1822.125 C471.14201172 1821.38636719 471.14201172 1821.38636719 471.98828125 1820.6328125 C472.65214844 1820.09398438 473.31601563 1819.55515625 474 1819 C474.43948975 1818.50822266 474.87897949 1818.01644531 475.33178711 1817.50976562 C477.20667665 1815.70194952 478.498561 1814.77140761 481 1814 C484.96731385 1814.83765043 488.43806719 1816.52175647 492.05865479 1818.32034302 C495.35358154 1819.95068044 498.70533742 1821.45726347 502.05078125 1822.98046875 C502.76554626 1823.3090538 503.48031128 1823.63763885 504.21673584 1823.97618103 C512.86049782 1827.91554989 521.72373252 1831.25642811 530.625 1834.5625 C531.47151123 1834.87744415 532.31802246 1835.19238831 533.19018555 1835.51687622 C606.24351353 1862.61431874 681.8616054 1881.97300326 759 1893 C759.68584167 1893.09841187 760.37168335 1893.19682373 761.07830811 1893.29821777 C845.91919469 1905.41870804 932.44023098 1905.77421859 1258 1796 C1258.69706055 1795.52143555 1259.39412109 1795.04287109 1260.11230469 1794.54980469 C1275.01661543 1784.3060808 1289.32501989 1773.31335506 1303.0390625 1761.5234375 C1305.92318876 1759.06546182 1308.85755696 1756.68455016 1311.8125 1754.3125 C1315.74117422 1751.11831705 1319.37089272 1747.78945732 1322.85546875 1744.1171875 C1324.70903124 1742.28725878 1326.60287605 1740.60476055 1328.578125 1738.91015625 C1333.81027262 1734.36624239 1338.67487184 1729.47106018 1343.5625 1724.5625 C1344.46935547 1723.65951172 1345.37621094 1722.75652344 1346.31054688 1721.82617188 C1350.87147308 1717.25863084 1355.30144911 1712.63976135 1359.50463867 1707.74047852 C1361.5704997 1705.33598492 1363.72406733 1703.01586651 1365.875 1700.6875 C1369.91402153 1696.25368689 1373.77506878 1691.71945416 1377.5390625 1687.05078125 C1379.33280236 1684.82711326 1381.13872383 1682.61801522 1382.9609375 1680.41796875 C1411.6191754 1645.70139081 1435.41987516 1607.42326232 1457 1568 C1457.47629852 1567.1315596 1457.47629852 1567.1315596 1457.96221924 1566.24557495 C1462.9863085 1557.05667897 1467.59635769 1547.74538098 1471.875 1538.1875 C1472.17369995 1537.52258545 1472.4723999 1536.8576709 1472.78015137 1536.17260742 C1495.69650977 1485.03632985 1510.27109899 1431.1772046 1516.3125 1375.5 C1516.39408356 1374.74888947 1516.47566711 1373.99777893 1516.5597229 1373.22390747 C1518.51428788 1354.90468603 1519.20860175 1336.66889646 1519.1875 1318.25 C1519.18689575 1317.26655609 1519.1862915 1316.28311218 1519.18566895 1315.26986694 C1519.15777004 1298.44019124 1518.63673855 1281.76100336 1517 1265 C1516.93683594 1264.3482782 1516.87367187 1263.6965564 1516.80859375 1263.02508545 C1509.63854534 1189.70123565 1489.56594538 1118.77859044 1461 1051 C1460.71703064 1050.32682739 1460.43406128 1049.65365479 1460.14251709 1048.96008301 C1451.43262575 1028.26826813 1441.88796474 1008.02279151 1431.93811035 987.90161133 C1431.03380075 986.06851633 1430.1344126 984.23311308 1429.23730469 982.39648438 C1422.20473902 968.00482648 1414.77515746 953.93738261 1406.76269531 940.06787109 C1404.86215814 936.76009407 1402.98757058 933.438149 1401.1171875 930.11328125 C1392.85303158 915.44684141 1384.2638979 901.063422 1375 887 C1374.59185059 886.38024292 1374.18370117 885.76048584 1373.76318359 885.12194824 C1357.75354065 860.80549449 1357.75354065 860.80549449 1341 837 C1340.46536133 836.26249512 1339.93072266 835.52499023 1339.37988281 834.76513672 C1327.22465396 818.02661867 1314.53658269 801.73713919 1301.42382812 785.73974609 C1300.14773696 784.18051673 1298.87812619 782.615989 1297.609375 781.05078125 C1289.34608006 770.87028299 1280.81216805 760.92396462 1272 751.21484375 C1270.20396471 749.22587498 1268.44046697 747.21436806 1266.6875 745.1875 C1262.69213733 740.60566208 1258.56386707 736.14771257 1254.42700195 731.6940918 C1252.25860492 729.35877296 1250.0955217 727.0187537 1247.93725586 724.67407227 C1239.31270463 715.33503838 1230.4305343 706.27520352 1221.4296875 697.29931641 C1219.10298555 694.97803685 1216.78176172 692.65137337 1214.4609375 690.32421875 C1212.95605012 688.81999133 1211.45085303 687.31607369 1209.9453125 685.8125 C1208.92475266 684.78890381 1208.92475266 684.78890381 1207.88357544 683.74462891 C1203.96881813 679.8487131 1199.94574011 676.13882605 1195.76535034 672.52954102 C1193.72050417 670.75783825 1191.7416415 668.92701387 1189.78125 667.0625 C1189.07613281 666.39476562 1188.37101562 665.72703125 1187.64453125 665.0390625 C1186.21484375 663.6796875 1184.78515625 662.3203125 1183.35546875 660.9609375 C1178.66778099 656.52177432 1173.89233817 652.21235615 1169 648 C1168.43442383 647.51225098 1167.86884766 647.02450195 1167.28613281 646.52197266 C1165.65152762 645.11593927 1164.0138912 643.71353442 1162.375 642.3125 C1161.15879156 641.27220861 1159.94264764 640.23184177 1158.7265625 639.19140625 C1158.11200195 638.66562988 1157.49744141 638.13985352 1156.86425781 637.59814453 C1155.0183072 636.01569394 1153.1765159 634.42853796 1151.3359375 632.83984375 C1145.54696086 627.84783192 1139.73602429 622.91237702 1133.734375 618.17578125 C1131.60469296 616.48116282 1129.49344798 614.77044328 1127.390625 613.04296875 C1119.50598391 606.57086643 1111.51332999 600.30295997 1103.3203125 594.2265625 C1100.1862714 591.89829256 1097.08322926 589.53349332 1093.9921875 587.1484375 C1084.83437625 580.08813998 1075.6315319 573.19041276 1066.0065918 566.77563477 C1061.91592538 564.04021615 1057.91658143 561.21322223 1053.96829224 558.27755737 C1045.40645587 551.91633228 1036.60499209 545.98139032 1027.67675781 540.14819336 C1025.26338979 538.57124917 1022.8540472 536.98830709 1020.4453125 535.40429688 C1009.37809197 528.13963927 998.21633543 521.03185999 987 514 C985.46206787 513.03453247 985.46206787 513.03453247 983.89306641 512.04956055 C970.72726495 503.80748355 957.4150279 495.82895249 944 488 C942.97213379 487.39897461 941.94426758 486.79794922 940.88525391 486.17871094 C926.57809557 477.82470611 912.15590837 469.73205191 897.54760742 461.91723633 C894.77418894 460.42553474 892.01562924 458.90804777 889.2590332 457.38549805 C875.23100254 449.65148021 861.02377428 442.33215452 846.6875 435.1875 C844.98596771 434.33785172 844.98596771 434.33785172 843.25006104 433.47103882 C825.93881795 424.83575951 808.54319566 416.48207171 790.83544922 408.69335938 C787.52209911 407.23464777 784.2199684 405.7520784 780.92015076 404.26304626 C747.20437233 389.05354964 712.79516179 375.53019862 678 363 C677.21751892 362.71811829 676.43503784 362.43623657 675.62884521 362.14581299 C580.16338451 327.81151187 481.55220638 303.14826827 107.25366211 272.28808594 C93.8260397 272.93361553 80.44261601 273.12236283 67 273 C66.87415527 273.73702148 66.74831055 274.47404297 66.61865234 275.23339844 C65.64835451 279.57255198 63.61670755 283.2959689 61.625 287.25 C61.18164307 288.13171875 60.73828613 289.0134375 60.28149414 289.921875 C53.50792734 303.12517272 45.22280976 315.38433066 36 327 C35.22914063 327.97582031 34.45828125 328.95164062 33.6640625 329.95703125 C20.72163689 345.96061302 5.83812784 360.18073123 -11 372 C-11.62825684 372.44633789 -12.25651367 372.89267578 -12.90380859 373.35253906 C-40.27065901 392.67116199 -71.20660406 405.42935242 -104 412 C-105.23556641 412.24991699 -105.23556641 412.24991699 -106.49609375 412.50488281 C-135.1505477 417.97095756 -167.55217015 417.14506796 -196 411 C-197.49152588 410.67854004 -197.49152588 410.67854004 -199.01318359 410.35058594 C-238.59954057 401.49345282 -275.86908264 382.34491181 -305.39453125 354.453125 C-307.60731071 352.36972845 -309.86248316 350.39252399 -312.1875 348.4375 C-347.28106144 317.81170202 -369.12332316 269.85013904 -378 225 C-378.16516113 224.18063965 -378.33032227 223.3612793 -378.50048828 222.51708984 C-383.96991287 193.85775749 -383.14628915 161.45348318 -377 133 C-376.78569336 132.00564941 -376.57138672 131.01129883 -376.35058594 129.98681641 C-367.50389989 90.44715189 -348.38575149 53.17682511 -320.52734375 23.6796875 C-318.22035953 21.23364241 -316.00977574 18.73171402 -313.8125 16.1875 C-310.15883784 12.06882629 -306.2230454 8.52166548 -302 5 C-301.13890625 4.25105469 -300.2778125 3.50210938 -299.390625 2.73046875 C-229.32755316 -57.39122127 -126.41106102 -69.5783238 0 0 Z " fill="#764ABC" transform="translate(1676,1015)"/>
<path d="M0 0 C0.24008789 1.04075684 0.48017578 2.08151367 0.72753906 3.15380859 C22.40102927 98.80564148 22.40102927 98.80564148 49.890625 192.90234375 C50.11107986 193.57160889 50.33153473 194.24087402 50.55867004 194.93041992 C51.56011893 197.95784143 52.58236514 200.97566777 53.63745117 203.98486328 C53.98267822 205.00177246 54.32790527 206.01868164 54.68359375 207.06640625 C54.98837646 207.93209229 55.29315918 208.79777832 55.60717773 209.68969727 C56.09362219 212.55061949 55.61072477 213.62596499 54 216 C51.56640625 218.04296875 51.56640625 218.04296875 48.5625 220.1875 C47.46988337 220.98105176 46.37876945 221.77667611 45.2890625 222.57421875 C44.73766602 222.97688965 44.18626953 223.37956055 43.61816406 223.79443359 C39.27988278 227.02654479 35.16606383 230.55139144 31 234 C29.2500611 235.41674214 27.5000602 236.8334077 25.75 238.25 C15.51157055 246.63353567 5.57453527 255.36309534 -4.12109375 264.3671875 C-6.36254447 266.41703524 -8.62395671 268.42748858 -10.9140625 270.421875 C-24.20910929 282.02283773 -36.64405075 294.53962813 -49.125 307 C-49.85500214 307.72741394 -50.58500427 308.45482788 -51.33712769 309.20428467 C-53.45950366 311.3207328 -55.5780332 313.44095437 -57.6953125 315.5625 C-58.32712936 316.19233795 -58.95894623 316.8221759 -59.60990906 317.47109985 C-63.38702832 321.26758863 -66.9686738 325.18528983 -70.4704895 329.23690796 C-72.14845742 331.17112932 -73.8779457 333.04477565 -75.6484375 334.89453125 C-76.2566333 335.53430908 -76.8648291 336.17408691 -77.49145508 336.83325195 C-78.1130249 337.48640381 -78.73459473 338.13955566 -79.375 338.8125 C-84.45735538 344.189015 -89.28394154 349.6387559 -93.89453125 355.42578125 C-96.17200846 358.21030348 -98.56312008 360.85413803 -101 363.5 C-105.89385516 368.82986683 -110.45918762 374.36910389 -115 380 C-115.97407866 381.18326549 -116.94941 382.36550053 -117.92578125 383.546875 C-126.00222433 393.34915019 -133.66181159 403.42723036 -141.23046875 413.625 C-142.8511186 415.80017684 -144.48401534 417.96514358 -146.125 420.125 C-177.93511129 462.0245696 -205.51442697 507.19647755 -229.09503174 554.1965332 C-229.99080425 555.98167424 -230.88967364 557.76526017 -231.78857422 559.54882812 C-241.52864472 578.96985698 -250.07925344 598.77510472 -258 619 C-258.37801758 619.96519562 -258.37801758 619.96519562 -258.76367188 620.94989014 C-281.61598648 679.52213613 -296.90715511 742.17244835 -301 805 C-301.08612549 806.26666504 -301.17225098 807.53333008 -301.26098633 808.83837891 C-302.04029743 820.9760606 -302.20109035 833.0897862 -302.1875 845.25 C-302.18659363 846.76018204 -302.18659363 846.76018204 -302.18566895 848.3008728 C-302.15816439 865.27403478 -301.66712588 882.09713228 -300 899 C-299.8146167 900.90338135 -299.8146167 900.90338135 -299.62548828 902.84521484 C-292.84373972 969.83245004 -274.50336169 1035.03108244 -246 1096 C-245.72329468 1096.59252563 -245.44658936 1097.18505127 -245.16149902 1097.79553223 C-232.67290666 1124.50196135 -218.48972171 1149.93391395 -203 1175 C-202.43216797 1175.92538574 -201.86433594 1176.85077148 -201.27929688 1177.80419922 C-194.50694211 1188.83340276 -187.3069754 1199.44665093 -179.59814453 1209.84326172 C-178.03471714 1211.95314831 -176.48349096 1214.07156934 -174.93359375 1216.19140625 C-169.19152918 1223.99718541 -163.17698227 1231.46596389 -156.80078125 1238.76171875 C-154.28073013 1241.65018343 -151.88380778 1244.62269074 -149.5 1247.625 C-145.70732521 1252.30722942 -141.59271408 1256.52644869 -137.29418945 1260.73535156 C-134.62312199 1263.35492959 -132.07560448 1265.99576863 -129.6875 1268.875 C-124.60577334 1274.83673298 -118.64393712 1279.98796257 -112.87939453 1285.2734375 C-111.16117214 1286.85193435 -109.45183694 1288.43929359 -107.74609375 1290.03125 C-101.37467479 1295.96082157 -94.82551148 1301.60047566 -88 1307 C-87.35289062 1307.51433594 -86.70578125 1308.02867188 -86.0390625 1308.55859375 C-75.283251 1317.08838566 -64.31865327 1325.2332716 -53 1333 C-52.38092773 1333.42732422 -51.76185547 1333.85464844 -51.12402344 1334.29492188 C-34.729494 1345.57661094 -17.48974893 1355.52730962 0 1365 C1.16740723 1365.63905273 1.16740723 1365.63905273 2.35839844 1366.29101562 C26.94409887 1379.71224312 52.62438016 1390.62546427 79 1400 C79.67913452 1400.24169922 80.35826904 1400.48339844 81.0579834 1400.73242188 C147.54928114 1424.31630059 216.66234178 1436.36125536 286.875 1441.75 C287.64527527 1441.80916595 288.41555054 1441.86833191 289.20916748 1441.92929077 C293.71767921 1442.26977702 298.22735908 1442.57908875 302.74002075 1442.85925293 C304.21962122 1442.95139954 305.69902734 1443.04673567 307.17819214 1443.14562988 C326.85621349 1444.43588466 346.60184288 1444.2443024 366.3125 1444.25 C367.71223871 1444.25088371 367.71223871 1444.25088371 369.14025497 1444.25178528 C398.02229327 1444.26464265 426.73444284 1443.84804356 455.51794434 1441.22460938 C457.99210267 1441.00071466 460.46700375 1440.78805461 462.94238281 1440.578125 C519.99465717 1435.68653693 576.4450246 1425.74720124 632 1412 C632.82328796 1411.79632812 633.64657593 1411.59265625 634.49481201 1411.3828125 C659.6067371 1405.14683538 684.36197946 1397.89393226 709 1390 C709.76634766 1389.75507813 710.53269531 1389.51015625 711.32226562 1389.2578125 C756.24887962 1374.88129602 800.06848546 1357.5249288 843 1338 C844.56838623 1337.29302979 844.56838623 1337.29302979 846.16845703 1336.57177734 C876.0864251 1323.06710707 905.67552561 1308.49186183 934.32910156 1292.47216797 C938.01563049 1290.44019635 941.73524912 1288.47222509 945.45431519 1286.50061035 C958.32671498 1279.67567462 971.00507007 1272.59498353 983.5546875 1265.1875 C988.23873039 1262.42816108 992.97614957 1259.7872474 997.75 1257.1875 C1008.70067367 1251.19354048 1019.29678408 1244.59565777 1029.94302368 1238.08270264 C1034.26587589 1235.44074583 1038.60965403 1232.83599515 1042.96411133 1230.24658203 C1053.46561976 1223.99991261 1063.78070646 1217.48224499 1074.0625 1210.88134766 C1077.13025071 1208.91657979 1080.205019 1206.96317917 1083.28125 1205.01171875 C1095.29168981 1197.38128754 1107.16659338 1189.60160818 1118.85498047 1181.48632812 C1120.94126549 1180.04069835 1123.03364039 1178.6044498 1125.12890625 1177.171875 C1134.82083131 1170.54390197 1144.43568996 1163.81075249 1154 1157 C1154.71381836 1156.49243164 1155.42763672 1155.98486328 1156.16308594 1155.46191406 C1167.78418639 1147.18351217 1179.1672996 1138.61530532 1190.48535156 1129.92822266 C1192.8592999 1128.10788829 1195.23724195 1126.29295214 1197.6171875 1124.48046875 C1215.2670425 1111.03492849 1232.56407082 1097.21897986 1249.46240234 1082.83642578 C1252.83481143 1079.9699312 1256.24789743 1077.16035649 1259.6875 1074.375 C1264.13903808 1070.75165505 1268.42382455 1066.98036128 1272.66796875 1063.1171875 C1274.75823889 1061.21948831 1276.86986115 1059.35266585 1279 1057.5 C1282.85110578 1054.14381544 1286.64934814 1050.73125807 1290.44140625 1047.30859375 C1292.09252333 1045.8188072 1293.74600144 1044.33163123 1295.40234375 1042.84765625 C1309.35946049 1030.35961242 1309.35946049 1030.35961242 1322.70703125 1017.23046875 C1324.55426448 1015.433586 1326.42296907 1013.77692223 1328.3828125 1012.109375 C1334.25592858 1007.00779976 1339.69324346 1001.45578428 1345.18188477 995.94848633 C1347.05829475 994.06671726 1348.93998969 992.19035262 1350.82226562 990.31445312 C1356.25861354 984.8808056 1361.63536843 979.45779839 1366.61889648 973.59936523 C1368.6260006 971.27506983 1370.80077378 969.14135185 1373 967 C1376.48433405 963.55223317 1379.78212816 960.04086066 1382.96484375 956.31640625 C1385.14820175 953.8313174 1387.39930807 951.42116343 1389.66357422 949.01000977 C1394.94699006 943.38366179 1399.99651532 937.67254119 1404.82421875 931.64453125 C1407.130317 928.84160752 1409.54151531 926.16996725 1412 923.5 C1416.06305276 919.08009977 1419.89972888 914.53172847 1423.66796875 909.859375 C1425.70477771 907.3619811 1427.78330056 904.90783535 1429.88476562 902.46484375 C1435.18747361 896.28973031 1440.18396193 889.92471182 1445.0949707 883.43457031 C1448.63231371 878.76542366 1452.24816856 874.17464324 1455.9375 869.625 C1462.92450905 860.97105717 1469.46247794 851.99548426 1476 843 C1476.56396484 842.22688477 1477.12792969 841.45376953 1477.70898438 840.65722656 C1514.66872376 789.98246194 1547.94234713 736.58757014 1577.30664062 681.17236328 C1579.05175686 677.90303796 1580.8282511 674.6521728 1582.609375 671.40234375 C1583.74013017 669.31019129 1584.87036053 667.21775508 1586 665.125 C1586.5352832 664.16166748 1587.07056641 663.19833496 1587.62207031 662.20581055 C1588.09741211 661.31547119 1588.57275391 660.42513184 1589.0625 659.5078125 C1589.48660156 658.73066895 1589.91070313 657.95352539 1590.34765625 657.15283203 C1591.2370946 654.98741643 1591.2370946 654.98741643 1590.2277832 652.84204102 C1588.73578501 650.60359871 1587.04547902 648.76010324 1585.1875 646.8125 C1540.41030718 597.79477046 1522.24650535 535.4031466 1525 470 C1528.67870505 408.10919371 1560.5440311 353.52269736 1605 312 C1609.46825492 308.0498804 1614.15734468 304.47587182 1619 301 C1620.03898437 300.23945312 1621.07796875 299.47890625 1622.1484375 298.6953125 C1650.16067645 278.70633212 1681.34910541 265.8728761 1715 259 C1715.83740723 258.82065918 1716.67481445 258.64131836 1717.53759766 258.45654297 C1731.2404708 255.6352808 1745.13134715 255.69236577 1759.0625 255.625 C1760.45150009 255.61294525 1760.45150009 255.61294525 1761.86856079 255.60064697 C1779.77157893 255.48296172 1797.16863739 257.40675639 1814.5625 261.75 C1815.61002441 262.00966553 1816.65754883 262.26933105 1817.73681641 262.53686523 C1850.51292527 270.88906869 1881.04399526 286.29612223 1907 308 C1907.59151855 308.49000488 1908.18303711 308.98000977 1908.79248047 309.48486328 C1920.34218115 319.07928754 1930.66885277 329.19609875 1940 341 C1940.88420659 342.08302031 1941.76967001 343.16501548 1942.65625 344.24609375 C1981.52335205 392.03971021 1997.22102723 454.04659776 1991.74609375 514.81835938 C1987.22813635 558.24802028 1970.14388761 599.86077293 1943 634 C1941.85724609 635.44826172 1941.85724609 635.44826172 1940.69140625 636.92578125 C1936.39884308 642.27519808 1931.94767396 647.25658781 1927 652 C1924.57651422 654.40397301 1922.1726258 656.81903628 1919.81640625 659.2890625 C1888.05527427 692.20614555 1843.09374789 712.33514789 1798.57421875 720.23828125 C1797.79320801 720.37991699 1797.01219727 720.52155273 1796.20751953 720.66748047 C1794 721 1794 721 1790.16015625 721.15234375 C1786.73297678 721.72200834 1786.73297678 721.72200834 1784.796875 724.953125 C1784.08909673 726.37299516 1783.40936255 727.80700923 1782.75 729.25 C1781.89949907 730.97838736 1781.04782559 732.70619798 1780.1953125 734.43359375 C1779.70708008 735.44405762 1779.21884766 736.45452148 1778.71582031 737.49560547 C1775.53057746 744.00115127 1772.19462416 750.43046549 1768.88058472 756.87109375 C1767.61952835 759.32313928 1766.36140392 761.77667163 1765.10375977 764.23046875 C1758.93006275 776.26421589 1752.58592659 788.18624933 1746 800 C1744.87229912 802.03640478 1743.74469965 804.07286572 1742.6171875 806.109375 C1735.46228945 818.99451888 1728.11597267 831.75226965 1720.55273438 844.40185547 C1719.04617082 846.92274373 1717.54596569 849.44731889 1716.046875 851.97265625 C1692.39385792 891.71984558 1666.82601818 930.3283396 1640 968 C1639.49243164 968.71381836 1638.98486328 969.42763672 1638.46191406 970.16308594 C1630.7978603 980.9217734 1622.88688899 991.47326732 1614.8515625 1001.95703125 C1611.96033849 1005.73188292 1609.10473006 1009.53070488 1606.27075195 1013.34863281 C1600.21161525 1021.50863543 1593.87216034 1029.40906608 1587.421875 1037.26220703 C1585.51168478 1039.59681109 1583.62890887 1041.95267993 1581.75 1044.3125 C1575.32006036 1052.36670415 1568.76609535 1060.30914916 1562.08886719 1068.15893555 C1559.1577518 1071.61083087 1556.28310769 1075.10186667 1553.4375 1078.625 C1549.56420728 1083.38520053 1545.49240008 1087.92804784 1541.33984375 1092.4453125 C1539.34165152 1094.62697815 1537.37851111 1096.83011309 1535.4375 1099.0625 C1532.10453994 1102.89501379 1528.71164344 1106.6710797 1525.30859375 1110.44140625 C1523.8188072 1112.09252333 1522.33163123 1113.74600144 1520.84765625 1115.40234375 C1515.20916168 1121.69339466 1509.50334171 1127.91989554 1503.75454712 1134.11001587 C1502.62430597 1135.3275026 1501.49498148 1136.54584125 1500.36679077 1137.76522827 C1488.91647304 1150.12483531 1477.07651709 1162.08008243 1465.15185547 1173.97851562 C1462.50180905 1176.62279861 1459.85637236 1179.27164132 1457.21217346 1181.9217701 C1455.13947024 1183.99810641 1453.06436755 1186.07203159 1450.98855591 1188.14525986 C1450.01196309 1189.12119447 1449.03608769 1190.09784762 1448.06100464 1191.07529068 C1443.04760572 1196.09818943 1437.99925688 1201.01024519 1432.60058594 1205.61959839 C1430.63065833 1207.31853325 1428.80634755 1209.12914004 1427 1211 C1423.89624046 1214.14578336 1420.68123702 1217.07294016 1417.33203125 1219.953125 C1414.33729147 1222.58167382 1411.42044171 1225.28947025 1408.5 1228 C1401.03631208 1234.91395453 1393.3630781 1241.55749304 1385.63183594 1248.16918945 C1381.81474423 1251.43556404 1378.01558375 1254.72155455 1374.22705078 1258.02099609 C1367.58138598 1263.80565663 1360.85376059 1269.46216144 1354 1275 C1352.7521362 1276.01765561 1351.5047748 1277.03592745 1350.2578125 1278.0546875 C1342.20000554 1284.63230929 1334.08937573 1291.13416155 1325.88525391 1297.52832031 C1323.85114116 1299.1162032 1321.82201586 1300.71033763 1319.79296875 1302.3046875 C1309.78927873 1310.14732468 1299.63612412 1317.7589635 1289.37353516 1325.25878906 C1287.03721317 1326.97270065 1284.71050132 1328.69882247 1282.38671875 1330.4296875 C1251.60571328 1353.33299703 1219.54555271 1374.68870099 1187 1395 C1186.14519043 1395.53592773 1185.29038086 1396.07185547 1184.40966797 1396.62402344 C1148.63538201 1419.04018704 1111.87021352 1439.76571829 1074.39453125 1459.19140625 C1071.12951296 1460.88541697 1067.87497632 1462.59524465 1064.63671875 1464.33984375 C1036.85758217 1479.27538092 1008.16788142 1492.4226009 979.26501465 1505.01104736 C976.98755462 1506.00543391 974.71261422 1507.00536471 972.43847656 1508.00732422 C889.90209675 1544.37133947 804.14202796 1573.96691436 690.54931641 1603.3729248 C688.02815215 1603.9930752 685.50811677 1604.61763891 682.98828125 1605.24316406 C605.38543609 1624.46525085 526.85481059 1638.94043769 447.0625 1644.6875 C445.79829224 1644.77890762 445.79829224 1644.77890762 444.50854492 1644.87216187 C438.67460509 1645.28828894 432.83893156 1645.66121287 427 1646 C426.15643951 1646.0494577 425.31287903 1646.09891541 424.4437561 1646.14987183 C406.15873452 1647.18169108 387.86996668 1647.20148963 369.5625 1647.1875 C368.7787928 1647.18723312 367.9950856 1647.18696625 367.1876297 1647.18669128 C342.40782859 1647.17611407 317.71845628 1646.88651248 293 1645 C292.14686218 1644.93683594 291.29372437 1644.87367187 290.41473389 1644.80859375 C194.98575738 1637.73769458 100.71355606 1618.6112164 -74.59179688 1548.68652344 C-77.96510577 1547.01726714 -81.34849559 1545.37014536 -84.734375 1543.7265625 C-98.69836988 1536.90363291 -112.15644408 1529.45010108 -125.49707031 1521.48193359 C-128.67723217 1519.59902465 -131.89634214 1517.79838543 -135.125 1516 C-168.05874916 1497.23216482 -198.88353132 1474.47562938 -228.17089844 1450.49267578 C-229.78732209 1449.17356017 -231.41254521 1447.86524325 -233.0390625 1446.55859375 C-238.97740645 1441.77540316 -244.62531718 1436.75428051 -250.2109375 1431.5703125 C-252.5450955 1429.41922571 -254.90746617 1427.32074342 -257.3125 1425.25 C-260.43927503 1422.54227729 -263.34470462 1419.67601816 -266.2421875 1416.7265625 C-267.97663348 1415.02295112 -269.77238547 1413.44855962 -271.625 1411.875 C-279.62598502 1404.96576732 -287.16886975 1397.33961872 -294.00390625 1389.27734375 C-296.28115035 1386.67923552 -298.64283907 1384.17248747 -301.01391602 1381.66015625 C-306.42761447 1375.92190576 -311.68962902 1370.14705457 -316.61328125 1363.9765625 C-318.44089473 1361.69728022 -320.29018778 1359.44831712 -322.16796875 1357.2109375 C-334.86894679 1342.05118498 -346.32662251 1326.18181783 -357.3125 1309.75 C-357.72888733 1309.12864166 -358.14527466 1308.50728333 -358.57427979 1307.86709595 C-364.6752465 1298.74459614 -370.4307786 1289.45571482 -376 1280 C-376.52408447 1279.11505859 -377.04816895 1278.23011719 -377.58813477 1277.31835938 C-419.13160755 1206.78138502 -447.2687771 1129.18070953 -484 921 C-484.0799118 919.9547113 -484.0799118 919.9547113 -484.16143799 918.88830566 C-487.46645422 875.12943505 -487.40951281 830.7502223 -484 787 C-483.9391925 786.20275513 -483.87838501 785.40551025 -483.81573486 784.58410645 C-476.83429577 693.66189324 -456.75292999 603.30865357 -387.64453125 438.35205078 C-386.59946058 436.22188149 -385.55743952 434.09021125 -384.51953125 431.95654297 C-378.0430538 418.64302787 -371.02666571 405.72067909 -363.6484375 392.88671875 C-362.01651422 390.02891946 -360.41037247 387.15820757 -358.8125 384.28125 C-341.25155691 352.70934694 -321.27816627 322.20165405 -300 293 C-299.1661377 291.8538623 -299.1661377 291.8538623 -298.31542969 290.68457031 C-291.02024451 280.6780411 -283.61889391 270.76247338 -276 261 C-275.5555957 260.42942871 -275.11119141 259.85885742 -274.65332031 259.27099609 C-266.34550031 248.61152236 -257.84351334 238.13167106 -249.0859375 227.83789062 C-246.17412087 224.40959255 -243.32236523 220.94025685 -240.5 217.4375 C-236.37309794 212.36392507 -231.99897442 207.56258858 -227.5546875 202.76953125 C-225.49886278 200.54081607 -223.48383043 198.29232081 -221.5 196 C-217.76136883 191.69302584 -213.90561347 187.49599067 -210.03808594 183.30517578 C-208.23277535 181.34614896 -206.44094046 179.37806449 -204.65991211 177.39672852 C-194.82102233 166.53668631 -184.39647157 156.24416477 -174.02636719 145.89599609 C-171.28429938 143.15966055 -168.54679705 140.41880818 -165.81057358 137.67663002 C-163.67438338 135.53680478 -161.53579089 133.39939315 -159.396492 131.26267624 C-158.38640561 130.25324912 -157.3770397 129.24310045 -156.36846161 128.23216629 C-150.74768078 122.60111912 -145.04032047 117.17679491 -139 112 C-137.65740533 110.77045367 -136.32150538 109.53343535 -135 108.28125 C-134.34 107.65863281 -133.68 107.03601562 -133 106.39453125 C-132.34 105.76933594 -131.68 105.14414063 -131 104.5 C-123.67271703 97.55911672 -116.111695 90.92764326 -108.4375 84.375 C-104.01684689 80.59577262 -99.61286063 76.79861517 -95.22705078 72.97900391 C-88.58130595 67.19427371 -81.85190046 61.54022474 -75 56 C-73.78716792 55.00593078 -72.57497052 54.01108689 -71.36328125 53.015625 C-63.1466882 46.27902035 -54.80652017 39.73647695 -46.34375 33.3125 C-42.65824005 30.51177854 -39.00707774 27.66955774 -35.36303711 24.81518555 C-3.67606038 0 -3.67606038 0 0 0 Z " fill="#764ABC" transform="translate(603,1457)"/>
</svg>
