<?xml version="1.0" encoding="UTF-8"?>
<svg version="1.1" xmlns="http://www.w3.org/2000/svg" width="300" height="238">
<path d="M0 0 C9.15884064 0.54527776 18.30751292 0.71600031 27.48010325 0.84924173 C36.3541204 0.97834307 45.22340691 1.2405748 54.09315991 1.53949499 C55.96898251 1.60116018 57.84494535 1.65870386 59.7210238 1.7120204 C94.0985342 2.69653336 94.0985342 2.69653336 102.93404078 10.64134836 C105.23144461 13.13494419 107.23142885 15.68545601 109.06775546 18.53454828 C110.53221118 20.78949578 112.28616429 22.71402686 114.11398578 24.67925501 C114.61929828 25.27609095 115.12461078 25.87292688 115.64523578 26.48784876 C118.63788555 29.91565424 121.92964561 33.05711484 125.17648578 36.24175501 C129.15022315 40.13936715 133.05109619 44.03423409 136.67648578 48.26128626 C139.05865122 51.03123034 141.52922344 53.61039273 144.17648578 56.12847376 C144.83519671 56.75689173 145.49390765 57.3853097 146.17257953 58.03277063 C147.53088519 59.31826264 148.89842346 60.5940561 150.27414203 61.86089563 C155.10406711 66.51317934 155.10406711 66.51317934 155.43429828 69.83550501 C153.76040829 73.03772933 151.55708499 75.49581944 149.05148578 78.05425501 C148.0403924 79.12001967 147.02997493 80.18642597 146.02023578 81.25347376 C145.52910296 81.76700403 145.03797015 82.28053431 144.53195453 82.8096261 C142.81992872 84.61847758 141.17915812 86.48187973 139.55148578 88.36675501 C136.95938749 91.35572959 134.32762572 94.30497036 131.67648578 97.24175501 C129.00600233 100.20045252 126.35350519 103.17101973 123.73898578 106.17925501 C120.08711525 110.37339865 116.33382394 114.47269793 112.58664203 118.58159876 C110.00655442 121.42931296 107.47446722 124.31419518 104.95382953 127.21441126 C102.88289091 129.57664674 100.7813573 131.90971354 98.67648578 134.24175501 C95.98665147 137.22238221 93.31338214 140.21420734 90.67648578 143.24175501 C85.80505374 148.8315549 80.81753428 154.31710399 75.84836078 159.81988001 C71.85944001 164.24296902 67.9008067 168.68790505 63.98898578 173.17925501 C61.14379288 176.41688831 58.24794742 179.60861791 55.36007953 182.80816126 C53.46799893 184.91686647 51.5974282 187.04095302 49.73898578 189.17925501 C46.08711525 193.37339865 42.33382394 197.47269793 38.58664203 201.58159876 C36.00655442 204.42931296 33.47446722 207.31419518 30.95382953 210.21441126 C28.12336962 213.44300179 25.23687371 216.62088676 22.36007953 219.80816126 C20.46799893 221.91686647 18.5974282 224.04095302 16.73898578 226.17925501 C12.98121084 230.50290664 9.09824542 234.71029969 5.21554828 238.92144251 C3.16071249 241.06122382 3.16071249 241.06122382 2.17648578 243.24175501 C-1.15550658 242.95049694 -2.55064718 242.51163446 -4.96413922 240.12456751 C-5.66023297 239.21448938 -6.35632672 238.30441126 -7.07351422 237.36675501 C-7.8546861 236.36644251 -8.63585797 235.36613001 -9.44070172 234.33550501 C-10.22702985 233.31456751 -11.01335797 232.29363001 -11.82351422 231.24175501 C-13.27482844 229.4443979 -14.73306549 227.65260651 -16.19851422 225.86675501 C-16.9384361 224.96183313 -17.67835797 224.05691126 -18.44070172 223.12456751 C-21.50714586 219.4146728 -24.62050673 215.7459507 -27.73708844 212.07818079 C-31.38306354 207.78063876 -34.95328702 203.425177 -38.51101422 199.05425501 C-41.08497967 195.92375649 -43.69928326 192.83009867 -46.32351422 189.74175501 C-51.97209366 183.0914185 -57.4917493 176.34054495 -62.99538922 169.56988001 C-67.51763237 164.02131217 -72.10234702 158.53260706 -76.73708844 153.07818079 C-80.38306354 148.78063876 -83.95328702 144.425177 -87.51101422 140.05425501 C-90.08497815 136.92375835 -92.69920509 133.8300304 -95.32351422 130.74175501 C-99.44334721 125.89355376 -103.49147386 120.99329656 -107.50710797 116.05816126 C-110.10138688 112.90390309 -112.73957687 109.78972521 -115.38601422 106.67925501 C-119.25052418 102.13527077 -123.01284599 97.52655698 -126.71804547 92.85113001 C-130.13990383 88.61031111 -133.67826195 84.46903834 -137.21023297 80.31988001 C-137.63739606 79.81005579 -138.06455914 79.30023157 -138.50466657 78.77495813 C-139.40949922 77.72306086 -140.34427405 76.69640996 -141.30251813 75.69292688 C-142.71804547 74.16363001 -142.71804547 74.16363001 -144.82351422 71.24175501 C-144.62018533 66.67378722 -142.27625049 63.64093683 -139.56835675 60.1498971 C-139.11866808 59.56190765 -138.6689794 58.9739182 -138.2056638 58.3681109 C-98.26196006 6.85785116 -63.7289347 -3.91464481 0 0 Z " fill="#264C81" transform="translate(144.82351422309875,-5.24175500869751)"/>
<path d="M0 0 C21.33106532 -0.11670071 42.66207815 -0.20492309 63.99339771 -0.25906086 C73.89748099 -0.28486395 83.80136614 -0.32005457 93.70532227 -0.37719727 C102.33565944 -0.42696793 110.96585317 -0.45927569 119.59632987 -0.47044247 C124.16795999 -0.47697203 128.73917967 -0.4923616 133.31067848 -0.52865028 C137.61088575 -0.56250989 141.91051232 -0.57307347 146.21084023 -0.56553841 C147.79153089 -0.56691747 149.37224035 -0.57691004 150.95281601 -0.59602737 C153.10698485 -0.62081111 155.25894512 -0.61496223 157.41316223 -0.60127258 C158.61978925 -0.60588155 159.82641626 -0.61049051 161.06960773 -0.61523914 C164 0 164 0 165.91167736 2.53757954 C166.27082383 3.35017829 166.6299703 4.16277704 167 5 C155.86933182 12.02120071 144.45023241 18.51732694 133 25 C133.33 26.65 133.66 28.3 134 30 C121.59686222 37.55240568 109.01541528 44.78990094 96.42724609 52.02832031 C90.94844203 55.18025232 85.47438887 58.34040797 80 61.5 C77.83335774 62.7500423 75.66669103 64.00004224 73.5 65.25 C72.4275 65.86875 71.355 66.4875 70.25 67.125 C67 69 63.75 70.875 60.5 72.75 C59.4265332 73.36931396 58.35306641 73.98862793 57.24707031 74.62670898 C55.09019097 75.87104998 52.93329008 77.11535364 50.77636719 78.35961914 C44.06180384 82.23313236 37.34779627 86.10760471 30.63525391 89.98461914 C28.40962263 91.26853841 26.18276812 92.55034 23.95458984 93.82983398 C19.40918246 96.44118209 14.87334408 99.05830451 10.3984375 101.7890625 C9.74456055 102.18230713 9.09068359 102.57555176 8.41699219 102.98071289 C6.78400755 103.96651057 5.1609602 104.96872211 3.5390625 105.97265625 C1 107 1 107 -0.99609375 106.5859375 C-3.95225579 104.24636286 -6.29410721 101.45171074 -8.6875 98.5625 C-9.21859375 97.93214844 -9.7496875 97.30179687 -10.296875 96.65234375 C-14.13388067 92.08492013 -17.90631509 87.46477761 -21.6640625 82.83203125 C-23.85561544 80.17504817 -26.08877797 77.56249009 -28.3425293 74.95849609 C-33.05739849 69.50976882 -37.69378207 64.00810628 -42.1875 58.375 C-42.65720215 57.79516357 -43.1269043 57.21532715 -43.61083984 56.61791992 C-47.88147311 51.20425015 -47.88147311 51.20425015 -48 48 C-46.12915039 45.5456543 -46.12915039 45.5456543 -43.34765625 42.82421875 C-42.85470566 42.33597122 -42.36175507 41.84772369 -41.85386658 41.34468079 C-40.26806914 39.78025507 -38.66555173 38.23421983 -37.0625 36.6875 C-36.01649103 35.65800441 -34.9715563 34.62741613 -33.92773438 33.59570312 C-29.04777056 28.79485329 -24.08243183 24.13103575 -18.88793945 19.66967773 C-15.29822845 16.49496759 -11.94040872 13.08429731 -8.5625 9.6875 C-7.48452148 8.61532227 -7.48452148 8.61532227 -6.38476562 7.52148438 C-5.70220703 6.83763672 -5.01964844 6.15378906 -4.31640625 5.44921875 C-3.70224854 4.83393311 -3.08809082 4.21864746 -2.45532227 3.5847168 C-0.90829075 2.04624733 -0.90829075 2.04624733 0 0 Z " fill="#18253F" transform="translate(69,15)"/>
<path d="M0 0 C9.15884064 0.54527776 18.30751292 0.71600031 27.48010325 0.84924173 C36.3541204 0.97834307 45.22340691 1.2405748 54.09315991 1.53949499 C55.96898251 1.60116018 57.84494535 1.65870386 59.7210238 1.7120204 C94.0985342 2.69653336 94.0985342 2.69653336 102.93404078 10.64134836 C105.23144461 13.13494419 107.23142885 15.68545601 109.06775546 18.53454828 C110.53221118 20.78949578 112.28616429 22.71402686 114.11398578 24.67925501 C114.61929828 25.27609095 115.12461078 25.87292688 115.64523578 26.48784876 C118.63788555 29.91565424 121.92964561 33.05711484 125.17648578 36.24175501 C129.15022315 40.13936715 133.05109619 44.03423409 136.67648578 48.26128626 C139.05865122 51.03123034 141.52922344 53.61039273 144.17648578 56.12847376 C144.83519671 56.75689173 145.49390765 57.3853097 146.17257953 58.03277063 C147.53088519 59.31826264 148.89842346 60.5940561 150.27414203 61.86089563 C155.10406711 66.51317934 155.10406711 66.51317934 155.43429828 69.83550501 C153.76040829 73.03772933 151.55708499 75.49581944 149.05148578 78.05425501 C148.0403924 79.12001967 147.02997493 80.18642597 146.02023578 81.25347376 C145.52910296 81.76700403 145.03797015 82.28053431 144.53195453 82.8096261 C142.81992872 84.61847758 141.17915812 86.48187973 139.55148578 88.36675501 C136.95938749 91.35572959 134.32762572 94.30497036 131.67648578 97.24175501 C129.00600233 100.20045252 126.35350519 103.17101973 123.73898578 106.17925501 C120.08711525 110.37339865 116.33382394 114.47269793 112.58664203 118.58159876 C110.00655442 121.42931296 107.47446722 124.31419518 104.95382953 127.21441126 C102.88289091 129.57664674 100.7813573 131.90971354 98.67648578 134.24175501 C95.98665147 137.22238221 93.31338214 140.21420734 90.67648578 143.24175501 C85.80505374 148.8315549 80.81753428 154.31710399 75.84836078 159.81988001 C71.85944001 164.24296902 67.9008067 168.68790505 63.98898578 173.17925501 C61.14379288 176.41688831 58.24794742 179.60861791 55.36007953 182.80816126 C53.46799893 184.91686647 51.5974282 187.04095302 49.73898578 189.17925501 C46.08711525 193.37339865 42.33382394 197.47269793 38.58664203 201.58159876 C36.00655442 204.42931296 33.47446722 207.31419518 30.95382953 210.21441126 C28.12336962 213.44300179 25.23687371 216.62088676 22.36007953 219.80816126 C20.46799893 221.91686647 18.5974282 224.04095302 16.73898578 226.17925501 C12.98121084 230.50290664 9.09824542 234.71029969 5.21554828 238.92144251 C3.16071249 241.06122382 3.16071249 241.06122382 2.17648578 243.24175501 C-1.15550658 242.95049694 -2.55064718 242.51163446 -4.96413922 240.12456751 C-5.66023297 239.21448938 -6.35632672 238.30441126 -7.07351422 237.36675501 C-7.8546861 236.36644251 -8.63585797 235.36613001 -9.44070172 234.33550501 C-10.22702985 233.31456751 -11.01335797 232.29363001 -11.82351422 231.24175501 C-13.27482844 229.4443979 -14.73306549 227.65260651 -16.19851422 225.86675501 C-16.9384361 224.96183313 -17.67835797 224.05691126 -18.44070172 223.12456751 C-21.50714586 219.4146728 -24.62050673 215.7459507 -27.73708844 212.07818079 C-31.38306354 207.78063876 -34.95328702 203.425177 -38.51101422 199.05425501 C-41.08497967 195.92375649 -43.69928326 192.83009867 -46.32351422 189.74175501 C-51.97209366 183.0914185 -57.4917493 176.34054495 -62.99538922 169.56988001 C-67.51763237 164.02131217 -72.10234702 158.53260706 -76.73708844 153.07818079 C-80.38306354 148.78063876 -83.95328702 144.425177 -87.51101422 140.05425501 C-90.08497815 136.92375835 -92.69920509 133.8300304 -95.32351422 130.74175501 C-99.44334721 125.89355376 -103.49147386 120.99329656 -107.50710797 116.05816126 C-110.10138688 112.90390309 -112.73957687 109.78972521 -115.38601422 106.67925501 C-119.25052418 102.13527077 -123.01284599 97.52655698 -126.71804547 92.85113001 C-130.13990383 88.61031111 -133.67826195 84.46903834 -137.21023297 80.31988001 C-137.63739606 79.81005579 -138.06455914 79.30023157 -138.50466657 78.77495813 C-139.40949922 77.72306086 -140.34427405 76.69640996 -141.30251813 75.69292688 C-142.71804547 74.16363001 -142.71804547 74.16363001 -144.82351422 71.24175501 C-144.62018533 66.67378722 -142.27625049 63.64093683 -139.56835675 60.1498971 C-139.11866808 59.56190765 -138.6689794 58.9739182 -138.2056638 58.3681109 C-98.26196006 6.85785116 -63.7289347 -3.91464481 0 0 Z M-81.63803887 26.30575514 C-82.02924574 26.9446351 -82.4204526 27.58351505 -82.82351422 28.24175501 C-84.10717284 29.60315778 -85.40403599 30.95253079 -86.72585797 32.27691126 C-87.38908063 32.94142298 -88.05230329 33.6059347 -88.7356236 34.29058313 C-89.73819196 35.28735071 -89.73819196 35.28735071 -90.76101422 36.30425501 C-91.42552594 36.97263391 -92.09003766 37.64101282 -92.7746861 38.32964563 C-96.6419905 42.18944799 -100.62157569 45.8462186 -104.75491071 49.4177804 C-108.58685054 52.79656271 -112.23994831 56.35227906 -115.88601422 59.92925501 C-116.66911969 60.67497766 -117.45222516 61.42070032 -118.2590611 62.18902063 C-118.99318219 62.91154016 -119.72730329 63.6340597 -120.48367047 64.37847376 C-121.15019635 65.0251803 -121.81672223 65.67188684 -122.50344586 66.33819056 C-124.05748499 68.1452768 -124.05748499 68.1452768 -123.63723493 70.33696985 C-122.48907267 73.0246272 -120.83414262 74.94803991 -118.94851422 77.17925501 C-118.13382672 78.14991907 -117.31913922 79.12058313 -116.47976422 80.12066126 C-115.59454205 81.16119133 -114.70912203 82.20155313 -113.82351422 83.24175501 C-112.93753331 84.29206055 -112.05212041 85.34284549 -111.16726422 86.39409876 C-108.39437625 89.68377044 -105.6098573 92.96347826 -102.82351422 96.24175501 C-96.07727576 104.1790535 -89.39631883 112.15946362 -82.82351422 120.24175501 C-79.82752074 123.91170544 -76.82711751 127.57803104 -73.82351422 131.24175501 C-73.30096051 131.87919641 -72.7784068 132.51663782 -72.24001813 133.17339563 C-66.2086392 140.52613064 -60.16903025 147.86951385 -54.01101422 155.11675501 C-48.17549584 161.98794648 -42.39034295 168.89466918 -36.88992047 176.03863001 C-36.39105329 176.68388636 -35.8921861 177.3291427 -35.37820172 177.99395227 C-34.39729369 179.26614763 -33.42185124 180.54257936 -32.45242047 181.82354212 C-31.28855865 183.33271396 -30.06119403 184.79250601 -28.82351422 186.24175501 C-28.16351422 186.24175501 -27.50351422 186.24175501 -26.82351422 186.24175501 C-26.59792829 186.77671595 -26.37234235 187.31167688 -26.13992047 187.86284876 C-24.39704057 191.01244478 -22.11138773 193.60168609 -19.76101422 196.30425501 C-18.76676713 197.46245933 -17.77328959 198.62132467 -16.78054547 199.78081751 C-16.28377301 200.35992884 -15.78700055 200.93904016 -15.27517438 201.53570032 C-12.38705528 204.92994457 -9.5868064 208.39542764 -6.77273297 211.85113001 C-4.47748899 214.66613866 -2.15611663 217.45768117 0.17648578 220.24175501 C4.23951597 216.23238748 8.16044214 212.10530305 12.05148578 207.92925501 C12.67498919 207.2606344 13.29849261 206.5920138 13.94089007 205.90313196 C17.54335578 202.02896006 21.09696892 198.12399457 24.55148578 194.11675501 C29.69079344 188.18678462 35.01572997 182.41584674 40.30148578 176.61675501 C43.71135051 172.87063243 47.0762755 169.09234989 50.39914203 165.26909876 C52.47008064 162.90686328 54.57161425 160.57379648 56.67648578 158.24175501 C59.36632008 155.2611278 62.03958942 152.26930268 64.67648578 149.24175501 C68.06901671 145.3466269 71.52842778 141.51392738 74.98898578 137.67925501 C76.90202727 135.5475802 78.7953619 133.40156391 80.67648578 131.24175501 C84.06901671 127.3466269 87.52842778 123.51392738 90.98898578 119.67925501 C92.90202727 117.5475802 94.7953619 115.40156391 96.67648578 113.24175501 C101.54791781 107.65195512 106.53543728 102.16640603 111.50461078 96.66363001 C115.48622015 92.24864819 119.44569861 87.8189703 123.33664203 83.32378626 C124.73800709 81.73795276 126.16782789 80.17721588 127.61007953 78.62847376 C128.43636859 77.73773157 129.26265765 76.84698938 130.11398578 75.92925501 C131.27220843 74.69755579 131.27220843 74.69755579 132.45382953 73.44097376 C134.48480954 71.31373254 134.48480954 71.31373254 134.17648578 68.24175501 C133.51648578 68.24175501 132.85648578 68.24175501 132.17648578 68.24175501 C131.91762591 67.65619837 131.65876605 67.07064173 131.39206195 66.46734095 C130.08426853 64.07291541 128.67912477 62.53082171 126.72726703 60.63238001 C126.04341937 59.95948938 125.35957171 59.28659876 124.6550014 58.59331751 C123.94021625 57.89980188 123.22543109 57.20628626 122.48898578 56.49175501 C117.74989332 51.87124966 113.20514535 47.198304 108.88913226 42.17925501 C106.08905648 39.01155702 103.07278126 36.07164839 100.05148578 33.11675501 C98.8588883 31.95002733 97.66874527 30.78078507 96.48117328 29.60894251 C95.96538714 29.10475794 95.44960101 28.60057337 94.918185 28.08111048 C93.17648578 26.24175501 93.17648578 26.24175501 91.53708148 23.17730188 C89.47689388 20.73532444 88.3108903 20.26679708 85.12201381 19.67264986 C80.95955268 19.44222017 76.83237495 19.40707626 72.66525531 19.43364954 C71.06011308 19.42224126 69.45498708 19.40831237 67.84988666 19.39205408 C63.49424582 19.35616488 59.1394102 19.35853232 54.7836659 19.36993885 C51.14549526 19.37612005 47.50747959 19.36394047 43.869331 19.35186136 C35.2845731 19.32376482 26.70021318 19.32689707 18.11545062 19.34966516 C9.26444003 19.37262097 0.41464192 19.34449155 -8.43620884 19.29087222 C-16.0398399 19.24653655 -23.64309067 19.23328825 -31.24684179 19.24502504 C-35.78622273 19.25176283 -40.32482675 19.2469467 -44.86409879 19.21252298 C-49.13448382 19.18155221 -53.40307608 19.18952341 -57.67339063 19.22713327 C-59.23785683 19.23449762 -60.80245629 19.22830838 -62.36679959 19.2073617 C-73.61153035 19.04801174 -73.61153035 19.04801174 -81.63803887 26.30575514 Z " fill="#2F66B4" transform="translate(144.82351422309875,-5.24175500869751)"/>
<path d="M0 0 C2.78928074 1.17035073 4.498263 3.06612352 6.60205078 5.21459961 C7.80087891 6.41922852 7.80087891 6.41922852 9.02392578 7.64819336 C10.85205078 9.77709961 10.85205078 9.77709961 10.85205078 11.77709961 C11.51205078 11.77709961 12.17205078 11.77709961 12.85205078 11.77709961 C12.26504589 15.07911486 11.25412391 16.76606371 8.93798828 19.16772461 C8.34526123 19.79074463 7.75253418 20.41376465 7.1418457 21.05566406 C6.50996338 21.70623779 5.87808105 22.35681152 5.22705078 23.02709961 C3.93843574 24.37915018 2.65066486 25.73200585 1.36376953 27.08569336 C0.74937012 27.72877441 0.1349707 28.37185547 -0.49804688 29.03442383 C-2.91719528 31.58960011 -5.22256976 34.23336355 -7.51904297 36.89819336 C-11.75766389 41.78734603 -16.13954186 46.55302435 -20.47607422 51.35522461 C-24.46499499 55.77831362 -28.42362829 60.22324965 -32.33544922 64.71459961 C-34.42006086 67.08674389 -36.53223566 69.43266026 -38.64794922 71.77709961 C-41.47339588 74.91165497 -44.29299325 78.05059025 -47.08544922 81.21459961 C-47.90335938 82.14079102 -47.90335938 82.14079102 -48.73779297 83.08569336 C-50.32916961 84.93327467 -50.32916961 84.93327467 -52.14794922 87.77709961 C-54.17276001 88.13786316 -54.17276001 88.13786316 -56.68945312 88.11767578 C-58.10068954 88.11733589 -58.10068954 88.11733589 -59.54043579 88.11698914 C-60.55818085 88.10150528 -61.5759259 88.08602142 -62.62451172 88.07006836 C-63.66489594 88.06582352 -64.70528015 88.06157867 -65.77719116 88.0572052 C-69.10937069 88.04037443 -72.44095163 88.00271383 -75.77294922 87.96459961 C-78.02814884 87.94955848 -80.2833579 87.93586908 -82.53857422 87.92358398 C-88.07523777 87.8904566 -93.61155074 87.84021381 -99.14794922 87.77709961 C-99.14794922 89.42709961 -99.14794922 91.07709961 -99.14794922 92.77709961 C-119.60794922 92.77709961 -140.06794922 92.77709961 -161.14794922 92.77709961 C-157.648402 89.97746183 -154.69995872 87.80797838 -150.88623047 85.63256836 C-149.86335938 85.04604492 -148.84048828 84.45952148 -147.78662109 83.85522461 C-146.68898438 83.23131836 -145.59134766 82.60741211 -144.46044922 81.96459961 C-143.29808205 81.29968549 -142.13597741 80.63431224 -140.97412109 79.96850586 C-138.56253462 78.58700831 -136.14983578 77.20748396 -133.73632812 75.8293457 C-128.19623967 72.66371406 -122.67300941 69.46886074 -117.14794922 66.27709961 C-114.98136126 65.0269632 -112.81469434 63.77696361 -110.64794922 62.52709961 C-109.57544922 61.90834961 -108.50294922 61.28959961 -107.39794922 60.65209961 C-71.64794922 40.02709961 -71.64794922 40.02709961 -68.39746094 38.15185547 C-66.23237851 36.90274443 -64.0673394 35.65355832 -61.90234375 34.40429688 C-56.46179216 31.26507652 -51.02047706 28.12719398 -45.57763672 24.99194336 C-44.49305176 24.36674805 -43.4084668 23.74155273 -42.29101562 23.09741211 C-40.13008194 21.85244569 -37.96831116 20.60893101 -35.80566406 19.36694336 C-30.28060686 16.18812026 -24.78350186 12.97061097 -19.31982422 9.68725586 C-18.22041504 9.03120361 -17.12100586 8.37515137 -15.98828125 7.69921875 C-13.88928079 6.44444042 -11.79618295 5.17971976 -9.70996094 3.90380859 C-8.7742627 3.34636963 -7.83856445 2.78893066 -6.87451172 2.21459961 C-5.64595459 1.47016602 -5.64595459 1.47016602 -4.39257812 0.71069336 C-2.14794922 -0.22290039 -2.14794922 -0.22290039 0 0 Z " fill="#18253F" transform="translate(266.14794921875,51.222900390625)"/>
<path d="M0 0 C33.66 0 67.32 0 102 0 C99.18780573 2.81219427 96.92364493 4.33343385 93.49609375 6.265625 C92.37638184 6.90056885 91.25666992 7.5355127 90.10302734 8.18969727 C89.20834747 8.6925676 89.20834747 8.6925676 88.29559326 9.20559692 C85.76158447 10.62992079 83.23366239 12.06489886 80.7052002 13.4990387 C79.39750414 14.24053345 78.08947639 14.98144351 76.78112793 15.7217865 C70.45870435 19.30012854 64.16425348 22.92620131 57.875 26.5625 C55.72656553 27.80339067 53.57812803 29.04427608 51.4296875 30.28515625 C50.36975586 30.89762207 49.30982422 31.51008789 48.21777344 32.14111328 C42.81329354 35.26324606 37.40651926 38.38140055 32 41.5 C29.84243979 42.74477759 27.68488772 43.98956926 25.52734375 45.234375 C21.10309231 47.78685335 16.67858332 50.33888455 12.25390625 52.890625 C11.14354004 53.53136963 10.03317383 54.17211426 8.88916016 54.83227539 C6.6960196 56.09655831 4.50170879 57.35881367 2.30615234 58.61889648 C-2.73299027 61.51468463 -7.74855926 64.43773139 -12.71484375 67.45703125 C-14.02980835 68.2473877 -14.02980835 68.2473877 -15.37133789 69.05371094 C-16.9945288 70.03189912 -18.61019204 71.02273282 -20.21655273 72.02832031 C-20.92626221 72.45338867 -21.63597168 72.87845703 -22.3671875 73.31640625 C-22.97675293 73.69224854 -23.58631836 74.06809082 -24.21435547 74.45532227 C-26 75 -26 75 -28.06762695 74.27539062 C-31.02250426 72.32513427 -33.09594771 69.6549746 -35.3125 66.9375 C-36.03228027 66.06557007 -36.03228027 66.06557007 -36.76660156 65.17602539 C-37.7307056 64.00419606 -38.6915341 62.82966348 -39.64892578 61.65234375 C-40.85180604 60.18123902 -42.0786045 58.72976526 -43.30859375 57.28125 C-43.94925781 56.5078125 -44.58992188 55.734375 -45.25 54.9375 C-46.09304687 53.93009766 -46.09304687 53.93009766 -46.953125 52.90234375 C-48 51 -48 51 -47.85473633 49.19091797 C-46.64853473 46.09910045 -44.72596554 44.37241327 -42.37109375 42.04296875 C-41.66920677 41.34389153 -41.66920677 41.34389153 -40.95314026 40.63069153 C-39.96045082 39.64471718 -38.96417365 38.66234372 -37.96459961 37.68334961 C-36.46029161 36.20982521 -34.96656343 34.72625522 -33.47460938 33.24023438 C-28.75458048 28.55909965 -23.95600841 24.01849391 -18.90991211 19.68725586 C-15.31131299 16.50817897 -11.94712679 13.09105294 -8.5625 9.6875 C-7.48452148 8.61532227 -7.48452148 8.61532227 -6.38476562 7.52148438 C-5.70220703 6.83763672 -5.01964844 6.15378906 -4.31640625 5.44921875 C-3.70224854 4.83393311 -3.08809082 4.21864746 -2.45532227 3.5847168 C-0.90829075 2.04624733 -0.90829075 2.04624733 0 0 Z " fill="#264C81" transform="translate(69,15)"/>
<path d="M0 0 C19.47 0 38.94 0 59 0 C54.99846286 5.33538285 51.12087763 10.21465202 46.5625 15 C45.4170758 16.21660783 44.27253718 17.43405006 43.12890625 18.65234375 C42.31703857 19.51641846 42.31703857 19.51641846 41.48876953 20.39794922 C39.1104808 22.95720318 36.82472384 25.59210482 34.5625 28.25390625 C32.46642627 30.59626864 30.23528929 32.7911415 28 35 C14.69537046 19.81471606 14.69537046 19.81471606 9.6328125 13.13671875 C6.997497 9.68811211 4.24223191 6.33579939 1.50390625 2.96875 C0 1 0 1 0 0 Z " fill="#182540" transform="translate(117,180)"/>
<path d="M0 0 C12.21 0 24.42 0 37 0 C34.41960332 2.58039668 32.63117205 3.92333892 29.51953125 5.64453125 C28.61549561 6.14903809 27.71145996 6.65354492 26.7800293 7.17333984 C25.80074463 7.7142627 24.82145996 8.25518555 23.8125 8.8125 C21.71014088 9.98685626 19.60860294 11.1626836 17.5078125 12.33984375 C16.42661133 12.94554199 15.34541016 13.55124023 14.23144531 14.17529297 C9.18669713 17.02392155 4.18581189 19.9458728 -0.8125 22.875 C-9.5058901 27.96360371 -18.21319743 33.02712945 -26.9375 38.0625 C-28.00911377 38.6817334 -29.08072754 39.3009668 -30.18481445 39.93896484 C-36.09379014 43.34711013 -42.02339783 46.7117825 -48 50 C-46.46488177 46.35839901 -44.28003346 44.03556785 -41.4921875 41.26171875 C-40.58726563 40.35873047 -39.68234375 39.45574219 -38.75 38.52539062 C-38.04037109 37.82506714 -38.04037109 37.82506714 -37.31640625 37.1105957 C-35.89541817 35.70765879 -34.48279557 34.29626507 -33.0703125 32.88476562 C-28.48275569 28.32636701 -23.83570832 23.91704254 -18.9296875 19.70483398 C-15.32446341 16.51970243 -11.95346026 13.09742182 -8.5625 9.6875 C-7.48452148 8.61532227 -7.48452148 8.61532227 -6.38476562 7.52148438 C-5.70220703 6.83763672 -5.01964844 6.15378906 -4.31640625 5.44921875 C-3.70224854 4.83393311 -3.08809082 4.21864746 -2.45532227 3.5847168 C-0.90829075 2.04624733 -0.90829075 2.04624733 0 0 Z " fill="#182540" transform="translate(69,15)"/>
<path d="M0 0 C0.66 0.66 1.32 1.32 2 2 C-19.33333333 23.33333333 -40.66666667 44.66666667 -62 66 C-61.6521288 60.85345968 -58.79782191 58.25463874 -55.28686523 54.83276367 C-54.6917514 54.23706573 -54.09663757 53.6413678 -53.48348999 53.02761841 C-51.51785856 51.06476939 -49.53844889 49.11646121 -47.55859375 47.16796875 C-46.1915176 45.80835438 -44.82532304 44.44785304 -43.4599762 43.08650208 C-39.86676499 39.50855193 -36.26170336 35.94277706 -32.65405273 32.37939453 C-28.97373267 28.74001646 -25.30473188 25.08926654 -21.63476562 21.43945312 C-14.43421822 14.281785 -7.22110207 7.13692658 0 0 Z " fill="#2B5EA7" transform="translate(62,0)"/>
<path d="M0 0 C0.66 0.33 1.32 0.66 2 1 C1.42443359 1.56509277 0.84886719 2.13018555 0.25585938 2.71240234 C-2.33458544 5.26142102 -4.91735937 7.81807556 -7.5 10.375 C-8.85931641 11.70917969 -8.85931641 11.70917969 -10.24609375 13.0703125 C-11.10332031 13.92109375 -11.96054687 14.771875 -12.84375 15.6484375 C-14.03774414 16.82672119 -14.03774414 16.82672119 -15.25585938 18.02880859 C-17.22088598 19.81096779 -17.22088598 19.81096779 -17 22 C-18.98 22.99 -20.96 23.98 -23 25 C-21.43717018 21.23396131 -19.0936525 18.86360849 -16.2109375 16.015625 C-15.74765045 15.55516785 -15.2843634 15.09471069 -14.80703735 14.62030029 C-13.33434102 13.15874922 -11.85482597 11.70432832 -10.375 10.25 C-9.37193678 9.25697389 -8.36932743 8.26348911 -7.3671875 7.26953125 C-4.91669165 4.84102059 -2.4600333 2.41885325 0 0 Z " fill="#1B3155" transform="translate(44,40)"/>
</svg>
